<svg viewBox="0 0 330 200" xmlns="http://www.w3.org/2000/svg"><g><g><g><g><g><line x1="30.78125" y1="170.66684336072092" x2="25.78125" y2="170.66684336072092" style="visibility: inherit;" fill="rgb(0, 0, 0)" stroke="rgb(204, 204, 204)" stroke-width="1px"></line><line x1="30.78125" y1="152.98091704214153" x2="25.78125" y2="152.98091704214153" style="visibility: inherit;" fill="rgb(0, 0, 0)" stroke="rgb(204, 204, 204)" stroke-width="1px"></line><line x1="30.78125" y1="135.29499072356217" x2="25.78125" y2="135.29499072356217" style="visibility: inherit;" fill="rgb(0, 0, 0)" stroke="rgb(204, 204, 204)" stroke-width="1px"></line><line x1="30.78125" y1="117.60906440498277" x2="25.78125" y2="117.60906440498277" style="visibility: inherit;" fill="rgb(0, 0, 0)" stroke="rgb(204, 204, 204)" stroke-width="1px"></line><line x1="30.78125" y1="99.9231380864034" x2="25.78125" y2="99.9231380864034" style="visibility: inherit;" fill="rgb(0, 0, 0)" stroke="rgb(204, 204, 204)" stroke-width="1px"></line><line x1="30.78125" y1="82.23721176782402" x2="25.78125" y2="82.23721176782402" style="visibility: inherit;" fill="rgb(0, 0, 0)" stroke="rgb(204, 204, 204)" stroke-width="1px"></line><line x1="30.78125" y1="64.55128544924465" x2="25.78125" y2="64.55128544924465" style="visibility: inherit;" fill="rgb(0, 0, 0)" stroke="rgb(204, 204, 204)" stroke-width="1px"></line><line x1="30.78125" y1="46.86535913066527" x2="25.78125" y2="46.86535913066527" style="visibility: inherit;" fill="rgb(0, 0, 0)" stroke="rgb(204, 204, 204)" stroke-width="1px"></line><line x1="30.78125" y1="29.179432812085913" x2="25.78125" y2="29.179432812085913" style="visibility: inherit;" fill="rgb(0, 0, 0)" stroke="rgb(204, 204, 204)" stroke-width="1px"></line><line x1="30.78125" y1="11.493506493506537" x2="25.78125" y2="11.493506493506537" style="visibility: inherit;" fill="rgb(0, 0, 0)" stroke="rgb(204, 204, 204)" stroke-width="1px"></line></g><g transform="translate(20.78125, 0)"><text x="0" y="170.66684336072092" dx="0em" dy="0.3em" style="text-anchor: end; visibility: inherit; font-family: Roboto, sans-serif; font-size: 12px; font-weight: 200;" fill="rgb(255, 255, 255)" stroke="none" stroke-width="1px">1</text><text x="0" y="152.98091704214153" dx="0em" dy="0.3em" style="text-anchor: end; visibility: hidden; font-family: Roboto, sans-serif; font-size: 12px; font-weight: 200;" fill="rgb(255, 255, 255)" stroke="none" stroke-width="1px">2</text><text x="0" y="135.29499072356217" dx="0em" dy="0.3em" style="text-anchor: end; visibility: inherit; font-family: Roboto, sans-serif; font-size: 12px; font-weight: 200;" fill="rgb(255, 255, 255)" stroke="none" stroke-width="1px">3</text><text x="0" y="117.60906440498277" dx="0em" dy="0.3em" style="text-anchor: end; visibility: hidden; font-family: Roboto, sans-serif; font-size: 12px; font-weight: 200;" fill="rgb(255, 255, 255)" stroke="none" stroke-width="1px">4</text><text x="0" y="99.9231380864034" dx="0em" dy="0.3em" style="text-anchor: end; visibility: inherit; font-family: Roboto, sans-serif; font-size: 12px; font-weight: 200;" fill="rgb(255, 255, 255)" stroke="none" stroke-width="1px">5</text><text x="0" y="82.23721176782402" dx="0em" dy="0.3em" style="text-anchor: end; visibility: hidden; font-family: Roboto, sans-serif; font-size: 12px; font-weight: 200;" fill="rgb(255, 255, 255)" stroke="none" stroke-width="1px">6</text><text x="0" y="64.55128544924465" dx="0em" dy="0.3em" style="text-anchor: end; visibility: inherit; font-family: Roboto, sans-serif; font-size: 12px; font-weight: 200;" fill="rgb(255, 255, 255)" stroke="none" stroke-width="1px">7</text><text x="0" y="46.86535913066527" dx="0em" dy="0.3em" style="text-anchor: end; visibility: hidden; font-family: Roboto, sans-serif; font-size: 12px; font-weight: 200;" fill="rgb(255, 255, 255)" stroke="none" stroke-width="1px">8</text><text x="0" y="29.179432812085913" dx="0em" dy="0.3em" style="text-anchor: end; visibility: inherit; font-family: Roboto, sans-serif; font-size: 12px; font-weight: 200;" fill="rgb(255, 255, 255)" stroke="none" stroke-width="1px">9</text><text x="0" y="11.493506493506537" dx="0em" dy="0.3em" style="text-anchor: end; visibility: hidden; font-family: Roboto, sans-serif; font-size: 12px; font-weight: 200;" fill="rgb(255, 255, 255)" stroke="none" stroke-width="1px">10</text></g><line x1="30.78125" y1="0" x2="30.78125" y2="177" fill="rgb(0, 0, 0)" stroke="rgb(204, 204, 204)" stroke-width="1px"></line></g></g><g transform="translate(30, 0)" clip-path="url(#clip_0)"><clipPath id="clip_0"><rect width="299" height="176"></rect></clipPath><g><g><g><line x1="1.5380006886907345" y1="0" x2="1.5380006886907345" y2="177" fill="rgb(0, 0, 0)" stroke="rgb(189, 189, 189)" stroke-width="1px" opacity="0.25"></line><line x1="37.519197433610024" y1="0" x2="37.519197433610024" y2="177" fill="rgb(0, 0, 0)" stroke="rgb(189, 189, 189)" stroke-width="1px" opacity="0.25"></line><line x1="73.5003941785293" y1="0" x2="73.5003941785293" y2="177" fill="rgb(0, 0, 0)" stroke="rgb(189, 189, 189)" stroke-width="1px" opacity="0.25"></line><line x1="109.48159092344859" y1="0" x2="109.48159092344859" y2="177" fill="rgb(0, 0, 0)" stroke="rgb(189, 189, 189)" stroke-width="1px" opacity="0.25"></line><line x1="145.4627876683679" y1="0" x2="145.4627876683679" y2="177" fill="rgb(0, 0, 0)" stroke="rgb(189, 189, 189)" stroke-width="1px" opacity="0.25"></line><line x1="181.44398441328715" y1="0" x2="181.44398441328715" y2="177" fill="rgb(0, 0, 0)" stroke="rgb(189, 189, 189)" stroke-width="1px" opacity="0.25"></line><line x1="217.42518115820644" y1="0" x2="217.42518115820644" y2="177" fill="rgb(0, 0, 0)" stroke="rgb(189, 189, 189)" stroke-width="1px" opacity="0.25"></line><line x1="253.40637790312573" y1="0" x2="253.40637790312573" y2="177" fill="rgb(0, 0, 0)" stroke="rgb(189, 189, 189)" stroke-width="1px" opacity="0.25"></line><line x1="289.387574648045" y1="0" x2="289.387574648045" y2="177" fill="rgb(0, 0, 0)" stroke="rgb(189, 189, 189)" stroke-width="1px" opacity="0.25"></line></g><g><line x1="0" y1="170.66684336072092" x2="299.21875" y2="170.66684336072092" fill="rgb(0, 0, 0)" stroke="rgb(189, 189, 189)" stroke-width="1px" opacity="0.25"></line><line x1="0" y1="152.98091704214153" x2="299.21875" y2="152.98091704214153" fill="rgb(0, 0, 0)" stroke="rgb(189, 189, 189)" stroke-width="1px" opacity="0.25"></line><line x1="0" y1="135.29499072356217" x2="299.21875" y2="135.29499072356217" fill="rgb(0, 0, 0)" stroke="rgb(189, 189, 189)" stroke-width="1px" opacity="0.25"></line><line x1="0" y1="117.60906440498277" x2="299.21875" y2="117.60906440498277" fill="rgb(0, 0, 0)" stroke="rgb(189, 189, 189)" stroke-width="1px" opacity="0.25"></line><line x1="0" y1="99.9231380864034" x2="299.21875" y2="99.9231380864034" fill="rgb(0, 0, 0)" stroke="rgb(189, 189, 189)" stroke-width="1px" opacity="0.25"></line><line x1="0" y1="82.23721176782402" x2="299.21875" y2="82.23721176782402" fill="rgb(0, 0, 0)" stroke="rgb(189, 189, 189)" stroke-width="1px" opacity="0.25"></line><line x1="0" y1="64.55128544924465" x2="299.21875" y2="64.55128544924465" fill="rgb(0, 0, 0)" stroke="rgb(189, 189, 189)" stroke-width="1px" opacity="0.25"></line><line x1="0" y1="46.86535913066527" x2="299.21875" y2="46.86535913066527" fill="rgb(0, 0, 0)" stroke="rgb(189, 189, 189)" stroke-width="1px" opacity="0.25"></line><line x1="0" y1="29.179432812085913" x2="299.21875" y2="29.179432812085913" fill="rgb(0, 0, 0)" stroke="rgb(189, 189, 189)" stroke-width="1px" opacity="0.25"></line><line x1="0" y1="11.493506493506537" x2="299.21875" y2="11.493506493506537" fill="rgb(0, 0, 0)" stroke="rgb(189, 189, 189)" stroke-width="1px" opacity="0.25"></line></g></g></g><g><g><line x1="0" y1="188.35276967930028" x2="299.21875" y2="188.35276967930028" fill="rgb(0, 0, 0)" stroke="rgb(153, 153, 153)" stroke-width="1.5px"></line></g></g><g><g><line x1="1.5380006886907345" y1="0" x2="1.5380006886907345" y2="177" fill="rgb(0, 0, 0)" stroke="rgb(153, 153, 153)" stroke-width="1.5px"></line></g></g><g><g><g><g><g><path stroke="rgb(255, 112, 67)" stroke-width="2px" d="M1.5380006886907345,4.887983973513513L2.25762462358912,4.887983973513513L2.977248558487506,4.898785315815966L3.6968724933858916,4.9113091093832315L4.416496428284278,4.925684078040254L5.136120363182663,4.942260554318227L5.855744298081049,4.962323069346451L6.575368232979435,4.9804281440529845L7.294992167877821,5.0020338169719825L8.014616102776207,5.02750833083602L8.734240037674592,5.051178383464227L9.453863972572979,5.076754869394088L10.173487907471364,5.1033542370259815L10.89311184236975,5.130032926796108L11.612735777268135,5.159686611018074L12.332359712166522,5.19091159732629L13.051983647064906,5.219921997175169L13.771607581963293,5.258530898342845L14.491231516861678,5.292062364789076L15.210855451760064,5.3281638566626786L15.93047938665845,5.3623152350708905L16.650103321556834,5.411269873575206L17.36972725645522,5.4558778700893775L18.089351191353607,5.499668406039197L18.808975126251994,5.547840484666916L19.52859906115038,5.591172075413357L20.248222996048764,5.658797189166281L20.96784693094715,5.714859900029287L21.687470865845537,5.786067693425581L22.407094800743923,5.859834309258795L23.126718735642307,5.944452150787938L23.846342670540693,6.018101867604457L24.56596660543908,6.098191965516348L25.285590540337466,6.201626619672771L26.00521447523585,6.2584903848939035L26.724838410134236,6.351896693023039L27.444462345032623,6.457863257028027L28.16408627993101,6.627611735476613L28.883710214829392,6.720321686926437L29.60333414972778,6.813255482345011L30.322958084626165,6.92145493609363L31.042582019524552,6.991907633691298L31.762205954422935,7.122796341096422L32.481829889321325,7.325377444829662L33.201453824219705,7.494570032755695L33.92107775911809,7.694492905732324L34.64070169401648,7.81284602740455L35.360325628914865,8.04895030567238L36.07994956381325,8.241895114001863L36.79957349871164,8.425143446547358L37.519197433610024,8.601930199832257L38.238821368508404,8.811902496755991L38.95844530340679,8.98634341956016L39.67806923830518,9.233596752740167L40.39769317320357,9.411798824580789L41.11731710810195,9.636807526858284L41.83694104300034,9.902305301724105L42.556564977898724,10.17077673403712L43.27618891279711,10.278451573453523L43.99581284769549,10.492076952613997L44.715436782593876,10.836653956667583L45.43506071749226,11.097403262192257L46.15468465239064,11.334586932585882L46.874308587289036,11.597022450095581L47.59393252218742,11.880580368173147L48.3135564570858,12.156533986013617L49.03318039198419,12.50517543510179L49.752804326882575,12.742553676026226L50.47242826178096,12.943763732860743L51.19205219667934,13.273529499785587L51.91167613157773,13.618497385106522L52.63130006647612,13.998072308951555L53.35092400137451,14.182888780187382L54.07054793627289,14.586777566645893L54.790171871171275,14.889401731535589L55.50979580606966,15.18692944998005L56.22941974096805,15.49756051327328L56.94904367586643,15.803003037103636L57.668667610764814,16.093829554406494L58.38829154566321,16.434528088839222L59.107915480561594,16.920738519922374L59.827539415459974,17.36799529106384L60.54716335035836,17.600457108164527L61.26678728525675,17.849228855445865L61.986411220155134,18.37199912935769L62.70603515505351,18.73348240680618L63.4256590899519,19.070155551485048L64.14528302485029,19.4783016027104L64.86490695974868,19.766196179035312L65.58453089464706,20.1117284777405L66.30415482954544,20.578884186035708L67.02377876444383,21.139738282176836L67.74340269934223,21.478708317591447L68.4630266342406,21.97482023923212L69.18265056913899,22.521051819816552L69.90227450403738,22.97178971777688L70.62189843893576,23.19327042016073L71.34152237383415,23.69983972406069L72.06114630873253,24.36666069272297L72.78077024363093,24.675838075726887L73.5003941785293,25.041573540439348L74.2200181134277,25.57429948452687L74.93964204832608,25.96647287958656L75.65926598322447,26.596132595680796L76.37888991812284,26.91191183390697L77.09851385302123,27.465864205059408L77.81813778791961,27.949363695442113L78.537761722818,28.76436647680351L79.2573856577164,29.16824718618448L79.97700959261478,29.840727814876974L80.69663352751317,30.17897577674837L81.41625746241155,30.602945681468242L82.13588139730993,31.087817579248277L82.85550533220831,31.635539547535288L83.5751292671067,32.20933623600669L84.2947532020051,32.95130699486116L85.01437713690348,33.44216449302922L85.73400107180187,34.15733184202014L86.45362500670025,34.746502128389814L87.17324894159864,35.56143333042556L87.89287287649701,36.0659847715298L88.6124968113954,36.88339678439628L89.33212074629378,37.52635823185872L90.05174468119218,37.889153845449655L90.77136861609057,38.187749254562334L91.49099255098895,38.766666879020164L92.21061648588734,39.234403323404855L92.93024042078572,39.8728390781009L93.6498643556841,40.53309823461373L94.36948829058248,41.194116468832426L95.08911222548087,42.04542611333L95.80873616037927,42.54609979375866L96.52836009527765,42.765513839162885L97.24798403017604,43.82924590811272L97.96760796507442,44.16326215020831L98.68723189997282,44.97743020368474L99.40685583487118,45.82691834686689L100.12647976976957,46.637534916122064L100.84610370466795,47.72060562298351L101.56572763956635,48.484041818941364L102.28535157446474,49.11314151257296L103.00497550936312,49.366774477740556L103.72459944426151,50.05666903843948L104.4442233791599,50.91242644957357L105.16384731405827,51.65093100161282L105.88347124895665,52.29977794877653L106.60309518385505,52.75582799248815L107.32271911875344,53.75209880992512L108.04234305365182,54.5060494363902L108.76196698855021,55.27020858705637L109.48159092344859,55.71970319289428L110.20121485834699,56.42840038128318L110.92083879324537,57.03660693921422L111.64046272814375,58.18264336285204L112.36008666304213,58.67360335309133L113.07971059794052,59.8627270860973L113.79933453283891,60.59884921190387L114.51895846773729,61.48878267576457L115.23858240263569,62.23376745227766L115.95820633753407,63.11742289367227L116.67783027243246,63.68698920381281L117.39745420733082,64.82024976721429L118.11707814222922,65.03114898798536L118.83670207712761,65.87938588843527L119.55632601202599,66.92011297473368L120.27594994692438,67.41411107997054L120.99557388182276,68.25208204985256L121.71519781672116,69.42565010217744L122.43482175161954,70.01172184974783L123.15444568651792,70.49059210800385L123.8740696214163,72.10144661838858L124.59369355631469,72.30032725067674L125.31331749121308,73.16415286250782L126.03294142611146,73.91712736170773L126.75256536100986,74.28747997938511L127.47218929590824,75.34890184682212L128.19181323080662,76.80264410946188L128.911437165705,77.91836087493941L129.63106110060338,78.30625414115156L130.35068503550178,79.60497080314117L131.07030897040016,80.26259593122109L131.78993290529854,80.07138502236373L132.50955684019695,81.56074935069009L133.22918077509533,82.4680940488538L133.9488047099937,82.7356424309403L134.6684286448921,83.8044567594212L135.38805257979047,85.23155507407031L136.10767651468888,85.60366661453409L136.82730044958726,86.94294757717901L137.54692438448564,87.29610670442005L138.26654831938401,88.58194877071156L138.98617225428242,89.49378136688837L139.7057961891808,90.33444104323215L140.42542012407918,91.04302323576168L141.14504405897756,92.63945900273043L141.86466799387594,93.44775430329898L142.58429192877435,93.9656302453233L143.30391586367273,95.48303060240863L144.0235397985711,97.06006356739965L144.7431637334695,97.8110708553554L145.4627876683679,98.59062974577286L146.18241160326627,98.912777161298L146.90203553816465,99.91970063859686L147.62165947306303,100.71497802290777L148.3412834079614,102.53022213381436L149.06090734285982,103.79534975412655L149.7805312777582,104.7730754349668L150.50015521265658,105.60501607678452L151.21977914755496,105.07424426614922L151.93940308245334,106.72808424198873L152.65902701735175,107.9118017780398L153.37865095225013,108.28346434742157L154.09827488714853,108.27142088434256L154.81789882204689,109.44916084147665L155.53752275694526,110.87025595771608L156.25714669184367,112.18600926378961L156.97677062674205,112.30905035471248L157.69639456164046,113.83613766073628L158.4160184965388,114.44342134469969L159.13564243143722,115.40356204746L159.8552663663356,115.84829530363501L160.574890301234,117.11308686733892L161.29451423613236,117.2520903036639L162.01413817103074,118.9011476668497L162.73376210592915,119.7346650249851L163.45338604082752,121.17074056676562L164.17300997572593,121.83416268711927L164.89263391062428,122.86395574936654L165.6122578455227,124.52447312643864L166.33188178042107,125.46044604057525L167.05150571531945,127.09571215626879L167.77112965021783,127.66316981354676L168.4907535851162,128.51738401550213L169.21037752001462,129.70227781980864L169.930001454913,130.82919662178992L170.6496253898114,131.78167316544378L171.36924932470976,131.36230991267286L172.08887325960816,131.9082584875677L172.80849719450654,131.0863532217615L173.52812112940492,133.44436935264125L174.2477450643033,134.5801301932816L174.96736899920168,135.716184316078L175.6869929341001,136.07452775795957L176.40661686899847,137.19046882489334L177.12624080389688,138.40972515808832L177.84586473879523,139.70421711361695L178.5654886736936,139.2022882647551L179.28511260859202,138.99263102853658L180.0047365434904,140.23411953984402L180.7243604783888,140.44194026692384L181.44398441328715,140.15676857376894L182.16360834818556,141.48752553084555L182.88323228308394,142.78338620824027L183.60285621798235,144.14746903311323L184.3224801528807,144.55969795768323L185.04210408777908,145.83496723076104L185.7617280226775,147.0341870107714L186.48135195757587,146.34536020988725L187.20097589247428,148.43898795469664L187.92059982737263,147.80132962186073L188.64022376227103,149.82563937646384L189.3598476971694,149.78847089373676L190.07947163206782,150.22309207256342L190.79909556696617,151.29343856089855L191.51871950186455,150.82018627281204L192.23834343676296,150.64600110065666L192.95796737166134,152.1135750314254L193.67759130655975,152.29965427973139L194.3972152414581,153.57442926552125L195.1168391763565,152.7481363445282L195.8364631112549,154.70049302895424L196.55608704615327,154.10384290575814L197.27571098105165,156.04971668370368L197.99533491595002,154.6257286653076L198.71495885084843,154.1545667613171L199.4345827857468,154.49730829798946L200.15420672064522,153.8715530910201L200.87383065554357,155.31896488422632L201.59345459044198,157.041410915299L202.31307852534036,155.19043445012431L203.03270246023874,158.01503179180972L203.75232639513712,156.98597682293706L204.4719503300355,156.85700242530726L205.1915742649339,157.07246572547837L205.91119819983228,156.42059781101358L206.6308221347307,155.62303564643184L207.35044606962904,156.40229339083507L208.07007000452742,156.5686869359665L208.78969393942583,157.77528056441872L209.5093178743242,159.4482930665566L210.22894180922262,158.76530646771477L210.94856574412097,157.82063396039516L211.66818967901938,159.51324769662708L212.38781361391776,159.50045256564562L213.10743754881616,158.42585164894996L213.82706148371452,159.66310952054167L214.5466854186129,159.5027344287456L215.2663093535113,160.34885016521608L215.98593328840968,159.40436706373433L216.7055572233081,157.5086874406436L217.42518115820644,158.81410399671108L218.14480509310485,159.6217825673882L218.86442902800323,158.67091488195925L219.5840529629016,158.37208986076453L220.3036768978,160.161140512017L221.02330083269837,159.99248170745534L221.74292476759678,162.73493647599278L222.46254870249516,162.0035790265788L223.18217263739356,162.86537270559452L223.90179657229191,162.58817298722644L224.62142050719032,162.14122766658485L225.3410444420887,161.37126081910714L226.06066837698708,158.09520843661443L226.78029231188546,160.93157876646254L227.49991624678384,160.0876912726151L228.21954018168225,159.42414792855362L228.93916411658063,159.99127196616274L229.65878805147904,161.5063494322025L230.3784119863774,160.1461405131363L231.0980359212758,161.65658970475835L231.81765985617417,161.18520692591L232.53728379107255,162.75787862800993L233.25690772597096,161.48261276065938L233.9765316608693,159.82234130912775L234.69615559576772,159.84322727012207L235.4157795306661,161.6260568341236L236.1354034655645,162.2222461448003L236.85502740046286,162.02834126875004L237.57465133536124,162.9553878331977L238.29427527025965,163.05145535766042L239.01389920515803,162.81300775146283L239.73352314005643,162.22044817888207L240.45314707495479,161.90810637906904L241.1727710098532,164.11505826195562L241.89239494475157,163.291683337445L242.61201887964998,163.54401130610006L243.33164281454833,162.86804200096293L244.0512667494467,164.63866980636976L244.77089068434512,163.14042644522797L245.4905146192435,162.105161308978L246.2101385541419,163.79837814381017L246.92976248904026,165.09607495379032L247.64938642393867,163.96722659006798L248.36901035883704,164.48307011505386L249.08863429373542,164.8749583441893L249.8082582286338,163.76446037447468L250.52788216353218,163.71196525420837L251.2475060984306,163.96311525132165L251.96713003332897,162.39955872726284L252.68675396822738,163.6216838735503L253.40637790312573,165.45191334576984L254.12600183802414,165.04244446182793L254.84562577292252,163.56636690862692L255.5652497078209,164.51788319751995L256.2848736427193,163.7885085030203L257.00449757761766,162.43896103968987L257.7241215125161,164.35709779205513L258.4437454474144,163.07605688514616L259.16336938231285,162.93202660342638L259.88299331721123,162.71423985367974L260.6026172521096,162.83698436349826L261.322241187008,164.39661857491294L262.04186512190637,164.45163676633638L262.76148905680475,164.61083963544095L263.4811129917031,163.12610611301923L264.20073692660156,163.582841335437L264.9203608614999,166.5562675093865L265.6399847963983,164.3285736243479L266.3596087312967,165.23705502095842L267.0792326661951,166.04020275164473L267.79885660109346,165.14219377042218L268.51848053599184,164.28259225629412L269.2381044708902,162.83102550934186L269.9577284057886,164.2963637300918L270.67735234068704,165.2441940938257L271.39697627558536,164.30858667798165L272.1166002104838,164.8658266923786L272.8362241453822,166.53081856862067L273.55584808028055,165.55700915685955L274.27547201517893,165.80661066451668L274.9950959500773,164.2404521128833L275.7147198849757,163.9874040891857L276.4343438198741,165.44516369927308L277.1539677547725,166.02395249058057L277.87359168967083,164.53111626346285L278.5932156245692,165.24746240027878L279.31283955946765,164.4270114783965L280.032463494366,165.01501841242614L280.7520874292644,165.89031328262965L281.4717113641628,164.90727607325044L282.19133529906117,165.04536416156938L282.91095923395955,161.59857205707294L283.630583168858,163.29169259663993L284.3502071037563,164.41330377363943L285.0698310386547,165.90878878425045L285.7894549735531,166.07958278206948L286.5090789084515,166.64898676933313L287.2287028433499,165.56334583263128L287.94832677824826,166.75254397828482L288.66795071314664,166.37875938994907L289.387574648045,165.04127976714759L290.1071985829434,166.1815030609217L290.82682251784183,166.62225846000803L291.54644645274016,164.93313552176642L292.2660703876386,165.4193683382451L292.985694322537,165.18166980174973L293.70531825743535,164.72286030677944L294.42494219233373,164.80200667895576L295.1445661272321,164.30306985826758L295.8641900621305,166.1155352500359L296.58381399702887,166.39986232212854L297.3034379319273,166.75158777675568L298.0230618668256,167.3161168907946L298.74268580172406,164.7682791853892L299.46230973662244,167.35547897864072" style="fill: none;" fill="none"></path></g><g><path stroke="rgb(0, 119, 187)" stroke-width="2px" d="M1.5380006886907345,4.887983973513513L2.25762462358912,4.911546696011891L2.977248558487506,4.939365701262785L3.6968724933858916,4.971093551937831L4.416496428284278,5.001318642230641L5.136120363182663,5.037811929578949L5.855744298081049,5.079608507942944L6.575368232979435,5.117244684173252L7.294992167877821,5.160871298882355L8.014616102776207,5.214181910601482L8.734240037674592,5.261431606973465L9.453863972572979,5.313694340863911L10.173487907471364,5.366517625297183L10.89311184236975,5.420475676848935L11.612735777268135,5.479056305707148L12.332359712166522,5.542042672158886L13.051983647064906,5.59868089399088L13.771607581963293,5.676765092318282L14.491231516861678,5.742214691353061L15.210855451760064,5.814628033620713L15.93047938665845,5.880983082341736L16.650103321556834,5.979700205450565L17.36972725645522,6.067442327448297L18.089351191353607,6.1552236343650035L18.808975126251994,6.250305468249658L19.52859906115038,6.336087900914704L20.248222996048764,6.469613018952358L20.96784693094715,6.578974706399189L21.687470865845537,6.715947155213476L22.407094800743923,6.852738858980381L23.126718735642307,7.004029062281688L23.846342670540693,7.129918916490694L24.56596660543908,7.252131105209479L25.285590540337466,7.416689654212459L26.00521447523585,7.4952660887651925L26.724838410134236,7.635052894533204L27.444462345032623,7.797416691734079L28.16408627993101,8.043602326120169L28.883710214829392,8.187704487964501L29.60333414972778,8.326042719876822L30.322958084626165,8.509700512310463L31.042582019524552,8.624397657195788L31.762205954422935,8.81883582632403L32.481829889321325,9.101669685041568L33.201453824219705,9.356310262025847L33.92107775911809,9.649997736144353L34.64070169401648,9.808055144548952L35.360325628914865,10.128423910376434L36.07994956381325,10.384917602612024L36.79957349871164,10.606583473162264L37.519197433610024,10.818701658795229L38.238821368508404,11.087643193184993L38.95844530340679,11.302289348430431L39.67806923830518,11.627261567991972L40.39769317320357,11.849128905238324L41.11731710810195,12.134747217621046L41.83694104300034,12.482997368992818L42.556564977898724,12.835226216295204L43.27618891279711,12.94396968867791L43.99581284769549,13.210323871026926L44.715436782593876,13.672542039742947L45.43506071749226,14.00868281963626L46.15468465239064,14.310914277578187L46.874308587289036,14.645052761776896L47.59393252218742,15.009166787030235L48.3135564570858,15.359090683376929L49.03318039198419,15.811402997042666L49.752804326882575,16.104471473281254L50.47242826178096,16.34379868375344L51.19205219667934,16.76766784701147L51.91167613157773,17.211060429852818L52.63130006647612,17.69917322334004L53.35092400137451,17.914294803071005L54.07054793627289,18.43204598692361L54.790171871171275,18.80631668050369L55.50979580606966,19.173088837869876L56.22941974096805,19.557546477243942L56.94904367586643,19.934472210415475L57.668667610764814,20.290699043356575L58.38829154566321,20.713073340799035L59.107915480561594,21.332974859345804L59.827539415459974,21.89694325255031L60.54716335035836,22.167107841723457L61.26678728525675,22.45749364451119L61.986411220155134,23.120710541404502L62.70603515505351,23.563010306677196L63.4256590899519,23.969802870399675L64.14528302485029,24.473327076904322L64.86490695974868,24.814490722937258L65.58453089464706,25.22881063161069L66.30415482954544,25.80567365033184L67.02377876444383,26.509038330782023L67.74340269934223,26.91052607118211L68.4630266342406,27.526171180666303L69.18265056913899,28.199447898250884L69.90227450403738,28.75043067804807L70.62189843893576,28.992088732397484L71.34152237383415,29.610464697434868L72.06114630873253,30.43780206268437L72.78077024363093,30.796049333146918L73.5003941785293,31.228876901232496L74.2200181134277,31.876002149099936L74.93964204832608,32.337231886578195L75.65926598322447,33.11056020320902L76.37888991812284,33.474765726504266L77.09851385302123,34.14289646781887L77.81813778791961,34.72369477866018L78.537761722818,35.73056303556117L79.2573856577164,36.20513135904016L79.97700959261478,37.01889273187117L80.69663352751317,37.41244007462472L81.41625746241155,37.910662397181326L82.13588139730993,38.48736560740189L82.85550533220831,39.142173569606506L83.5751292671067,39.83160184358091L84.2947532020051,40.73481406911217L85.01437713690348,41.320369272195535L85.73400107180187,42.186424717353L86.45362500670025,42.88819289912731L87.17324894159864,43.87531395841113L87.89287287649701,44.47648184862911L88.6124968113954,45.46258506404793L89.33212074629378,46.232359304241264L90.05174468119218,46.654804562748105L90.77136861609057,46.98498594261161L91.49099255098895,47.66451041339638L92.21061648588734,48.20965487610354L92.93024042078572,48.97390262237228L93.6498643556841,49.76190552900775L94.36948829058248,50.54080783008268L95.08911222548087,51.56748289412988L95.80873616037927,52.13620809056568L96.52836009527765,52.381370976536914L97.24798403017604,53.672399585431776L97.96760796507442,54.053204696117355L98.68723189997282,55.038474332554685L99.40685583487118,56.042702043385184L100.12647976976957,57.01080167045035L100.84610370466795,58.330678767380455L101.56572763956635,59.25282367703163L102.28535157446474,59.98736084896215L103.00497550936312,60.26267929731339L103.72459944426151,61.08657170242963L104.4442233791599,62.10258410353148L105.16384731405827,62.98876489771339L105.88347124895665,63.74832655100125L106.60309518385505,64.26924456959745L107.32271911875344,65.45845606477559L108.04234305365182,66.35861068738126L108.76196698855021,67.26840828247269L109.48159092344859,67.78946959891222L110.20121485834699,68.62248289821291L110.92083879324537,69.35110171617383L111.64046272814375,70.72638289074078L112.36008666304213,71.29065252923611L113.07971059794052,72.7077149207922L113.79933453283891,73.58168041988513L114.51895846773729,74.63130739919389L115.23858240263569,75.4992289741623L115.95820633753407,76.5513061225583L116.67783027243246,77.20603047849467L117.39745420733082,78.57285874342135L118.11707814222922,78.76094322825585L118.83670207712761,79.78664953727073L119.55632601202599,81.0347994846698L120.27594994692438,81.60137927877891L120.99557388182276,82.58517802878008L121.71519781672116,84.0046771915073L122.43482175161954,84.66894490267296L123.15444568651792,85.18786406834437L123.8740696214163,87.1471959408827L124.59369355631469,87.3060053512658L125.31331749121308,88.31382290542707L126.03294142611146,89.20753292334169L126.75256536100986,89.6018195464112L127.47218929590824,90.8422100159753L128.19181323080662,92.59455289816961L128.911437165705,93.91914784995674L129.63106110060338,94.31327245109566L130.35068503550178,95.86710873234493L131.07030897040016,96.63466851577375L131.78993290529854,96.30711977624135L132.50955684019695,98.10522776874738L133.22918077509533,99.12546008368432L133.9488047099937,99.3436989469841L134.6684286448921,100.60810421087584L135.38805257979047,102.30932555949134L136.10767651468888,102.67458176117L136.82730044958726,104.29141632076208L137.54692438448564,104.61451790642585L138.26654831938401,106.16813134437112L138.98617225428242,107.21654270060891L139.7057961891808,108.14408155161043L140.42542012407918,108.91697776375422L141.14504405897756,110.84187664549412L141.86466799387594,111.73235738260651L142.58429192877435,112.26247578963911L143.30391586367273,114.07019536197035L144.0235397985711,115.97849861780895L144.7431637334695,116.7963673862105L145.4627876683679,117.66197237522155L146.18241160326627,117.91496964564702L146.90203553816465,119.0634450068286L147.62165947306303,119.94365300469437L148.3412834079614,122.12178977210229L149.06090734285982,123.60782059345902L149.7805312777582,124.69885613375325L150.50015521265658,125.60901826312606L151.21977914755496,124.70307682523298L151.93940308245334,126.68108043770312L152.65902701735175,128.0327387278872L153.37865095225013,128.31864939702393L154.09827488714853,128.09006381831102L154.81789882204689,129.42645475467754L155.53752275694526,131.07009291182194L156.25714669184367,132.5665910228458L156.97677062674205,132.49189534848134L157.69639456164046,134.26120049450196L158.4160184965388,134.77747784335406L159.13564243143722,135.76585970930566L159.8552663663356,136.07931094881744L160.574890301234,137.4512667855508L161.29451423613236,137.32340859218976L162.01413817103074,139.19866696141122L162.73376210592915,139.97419976419155L163.45338604082752,141.5435555853721L164.17300997572593,142.06544969953856L164.89263391062428,143.06930616962669L165.6122578455227,144.88892668533327L166.33188178042107,145.7330991037157L167.05150571531945,147.4924770491806L167.77112965021783,147.83372863235036L168.4907535851162,148.53423265089728L169.21037752001462,149.65303676437023L169.930001454913,150.66358027838857L170.6496253898114,151.4467585604502L171.36924932470976,150.38479798467174L172.08887325960816,150.57295142064712L172.80849719450654,148.95189863200628L173.52812112940492,151.54219067837133L174.2477450643033,152.49308812400025L174.96736899920168,153.43085765759002L175.6869929341001,153.32199164185766L176.40661686899847,154.20291031576747L177.12624080389688,155.20039254228942L177.84586473879523,156.29062406872063L178.5654886736936,155.02168692742535L179.28511260859202,154.14906779803093L180.0047365434904,155.14075345275666L180.7243604783888,154.81049700435227L181.44398441328715,153.83620196468152L182.16360834818556,154.9266625243759L182.88323228308394,155.97936788733963L183.60285621798235,157.12099042194689L184.3224801528807,157.05643290218427L185.04210408777908,158.08316353992757L185.7617280226775,159.030077321016L186.48135195757587,157.6452648278029L187.20097589247428,159.71901447513406L187.92059982737263,158.50235150814012L188.64022376227103,160.58225890697966L189.3598476971694,159.24535653373542L190.07947163206782,159.76702115665807L190.79909556696617,160.70807863273967L191.51871950186455,159.753886496044L192.23834343676296,159.16762209165933L192.95796737166134,160.4923626499594L193.67759130655975,160.4426617667647L194.3972152414581,161.64456123284077L195.1168391763565,160.49196153545614L195.8364631112549,162.44195267273778L196.55608704615327,161.4737335434147L197.27571098105165,163.2985699208769L197.99533491595002,161.51613751359122L198.71495885084843,160.82174998514674L199.4345827857468,161.00861914644545L200.15420672064522,160.12252421140994L200.87383065554357,161.4594760404289L201.59345459044198,163.09673390801655L202.31307852534036,160.9456651105852L203.03270246023874,163.78433754412384L203.75232639513712,162.5831113119163L204.4719503300355,162.28331789644966L205.1915742649339,162.33696933997405L205.91119819983228,161.5350857900798L206.6308221347307,160.59785500831393L207.35044606962904,161.31353180095383L208.07007000452742,161.41038002875212L208.78969393942583,162.52687845811423L209.5093178743242,164.14392087992547L210.22894180922262,163.3871105033003L210.94856574412097,162.35132120288523L211.66818967901938,163.990624921263L212.38781361391776,163.92776333698563L213.10743754881616,162.77072882898327L213.82706148371452,163.9500695537523L214.5466854186129,163.74052731913574L215.2663093535113,164.54842086072995L215.98593328840968,163.5894198319281L216.7055572233081,161.6718322000995L217.42518115820644,162.92298466396696L218.14480509310485,163.67420652924193L218.86442902800323,162.7308091749849L219.5840529629016,162.41577951089263L220.3036768978,164.1541782274696L221.02330083269837,163.99648422605733L221.74292476759678,166.6376255461119L222.46254870249516,165.89919719012627L223.18217263739356,166.71189192956004L223.90179657229191,166.42836384328857L224.62142050719032,165.98683070837168L225.3410444420887,165.24208664558017L226.06066837698708,162.1131489221335L226.78029231188546,164.81361172136275L227.49991624678384,164.00300748751044L228.21954018168225,163.37105946174543L228.93916411658063,163.9030231270903L229.65878805147904,165.34142329940892L230.3784119863774,164.05708029016353L231.0980359212758,165.48300214819315L231.81765985617417,165.04829378544682L232.53728379107255,166.52885852690645L233.25690772597096,165.32962252945254L233.9765316608693,163.76531434360123L234.69615559576772,163.77748718584544L235.4157795306661,165.460168494548L236.1354034655645,166.0090311890882L236.85502740046286,165.83712014669518L237.57465133536124,166.71293283330544L238.29427527025965,166.79943581691248L239.01389920515803,166.5662571546034L239.73352314005643,166.00206975882762L240.45314707495479,165.69783536311587L241.1727710098532,167.74675810968972L241.89239494475157,166.95432904564439L242.61201887964998,167.16232182274257L243.33164281454833,166.48661255762732L244.0512667494467,168.10086605841056L244.77089068434512,166.55129276818556L245.4905146192435,165.37962940305852L246.2101385541419,167.06354358947738L246.92976248904026,168.19693689016924L247.64938642393867,166.95343771285863L248.36901035883704,167.373519723005L249.08863429373542,167.67996974172277L249.8082582286338,166.4467451630203L250.52788216353218,166.27937202992237L251.2475060984306,166.484381522072L251.96713003332897,164.79109941569394L252.68675396822738,165.93682644999618L253.40637790312573,167.7296953857253L254.12600183802414,167.2925413429632L254.84562577292252,165.7712565386102L255.5652497078209,166.64299260294106L256.2848736427193,165.83778281337598L257.00449757761766,164.49108760938802L257.7241215125161,166.36300031993454L258.4437454474144,165.0403173664415L259.16336938231285,164.81935712998157L259.88299331721123,164.52367345623404L260.6026172521096,164.60810647611487L261.322241187008,166.1624814921004L262.04186512190637,166.2027328963946L262.76148905680475,166.31630051710832L263.4811129917031,164.79708881210908L264.20073692660156,165.24761253211747L264.9203608614999,168.20189408711823L265.6399847963983,165.9541304432931L266.3596087312967,166.86005043291178L267.0792326661951,167.6475339074444L267.79885660109346,166.73208905704593L268.51848053599184,165.84995070244068L269.2381044708902,164.40208658339668L269.9577284057886,165.83780856955042L270.67735234068704,166.76817833111713L271.39697627558536,165.83010170164312L272.1166002104838,166.3757237866225L272.8362241453822,168.0295386859098L273.55584808028055,167.04926002025755L274.27547201517893,167.2939886301119L274.9950959500773,165.75542020599906L275.7147198849757,165.4754238688248L276.4343438198741,166.91543508489053L277.1539677547725,167.47648491133697L277.87359168967083,165.9786934241795L278.5932156245692,166.6986544480786L279.31283955946765,165.86682464016087L280.032463494366,166.42955537978668L280.7520874292644,167.2843265847119L281.4717113641628,166.31739771588653L282.19133529906117,166.46221088332047L282.91095923395955,163.06921666913135L283.630583168858,164.7443238326091L284.3502071037563,165.842226499991L285.0698310386547,167.3132521434738L285.7894549735531,167.48088207628908L286.5090789084515,168.02504721344167L287.2287028433499,166.9544524804283L287.94832677824826,168.09611355575595L288.66795071314664,167.722515079318L289.387574648045,166.3932676023586L290.1071985829434,167.52123558003632L290.82682251784183,167.95759968566958L291.54644645274016,166.31075264108586L292.2660703876386,166.80001106217756L292.985694322537,166.55896415811318L293.70531825743535,166.0989881292659L294.42494219233373,166.16762468325194L295.1445661272321,165.66148743430676L295.8641900621305,167.44284036130165L296.58381399702887,167.7091501374131" style="fill: none;" fill="none"></path></g></g></g></g><g opacity="0.2"><g><g><g><path stroke="rgb(255, 112, 67)" stroke-width="2px" d="M1.5380006886907345,4.887983973513513L2.25762462358912,4.887983973513513L2.977248558487506,4.909202173537904L3.6968724933858916,4.926119387070869L4.416496428284278,4.944571462449783L5.136120363182663,4.965351130518183L5.855744298081049,4.991224515921526L6.575368232979435,5.0070285329508115L7.294992167877821,5.034150047767363L8.014616102776207,5.065640015530106L8.734240037674592,5.08675701587235L9.453863972572979,5.115295326239003L10.173487907471364,5.143496304331832L10.89311184236975,5.170331086715623L11.612735777268135,5.204502846055377L12.332359712166522,5.238118007143311L13.051983647064906,5.26378899318234L13.771607581963293,5.316918826311784L14.491231516861678,5.342775345101425L15.210855451760064,5.382766086164893L15.93047938665845,5.413969321494876L16.650103321556834,5.485315097411537L17.36972725645522,5.523349311286727L18.089351191353607,5.565903777631338L18.808975126251994,5.620703405516281L19.52859906115038,5.656713625748446L20.248222996048764,5.7610842312737995L20.96784693094715,5.799658176787148L21.687470865845537,5.893773881187851L22.407094800743923,5.971410904011581L23.126718735642307,6.072441920025956L23.846342670540693,6.129501674145601L24.56596660543908,6.219333258668559L25.285590540337466,6.358078022897981L26.00521447523585,6.344500398876034L26.724838410134236,6.493179598569964L27.444462345032623,6.618144339413124L28.16408627993101,6.884366969925806L28.883710214829392,6.86055131139287L29.60333414972778,6.953823685108974L30.322958084626165,7.085113406086585L31.042582019524552,7.098471764130556L31.762205954422935,7.32077373258957L32.481829889321325,7.631794089067883L33.201453824219705,7.750484449617657L33.92107775911809,7.996888809042367L34.64070169401648,7.991862558162189L35.360325628914865,8.406072857207432L36.07994956381325,8.533736256241305L36.79957349871164,8.702318060091672L37.519197433610024,8.869331268868688L38.238821368508404,9.129498785065978L38.95844530340679,9.250196272645075L39.67806923830518,9.60758295016237L40.39769317320357,9.681340651836983L41.11731710810195,9.977147322765212L41.83694104300034,10.303887363204366L42.556564977898724,10.576856639193787L43.27618891279711,10.441316531565814L43.99581284769549,10.815198757273784L44.715436782593876,11.357848319582715L45.43506071749226,11.491802965523656L46.15468465239064,11.69334213252795L46.874308587289036,11.993972654972064L47.59393252218742,12.309479530692416L48.3135564570858,12.573931166767451L49.03318039198419,13.032517526436035L49.752804326882575,13.101603176117996L50.47242826178096,13.24810658264569L51.19205219667934,13.772320936189388L51.91167613157773,14.140282980491495L52.63130006647612,14.57220322391322L53.35092400137451,14.462435302006462L54.07054793627289,15.19768472606299L54.790171871171275,15.347139789986755L55.50979580606966,15.636958813054378L56.22941974096805,15.967409508505735L56.94904367586643,16.265004040485312L57.668667610764814,16.533722929824393L58.38829154566321,16.94985602283051L59.107915480561594,17.656162337791777L59.827539415459974,18.0444992514337L60.54716335035836,17.952070208402173L61.26678728525675,18.22551174957497L61.986411220155134,19.162722005978125L62.70603515505351,19.280248570183154L63.4256590899519,19.57939483062238L64.14528302485029,20.095648142503514L64.86490695974868,20.201654809557002L65.58453089464706,20.634367783822242L66.30415482954544,21.28548653878368L67.02377876444383,21.988065332119042L67.74340269934223,21.99142178824372L68.4630266342406,22.725220683522767L69.18265056913899,23.347261396479393L69.90227450403738,23.65355910112399L70.62189843893576,23.528273894620686L71.34152237383415,24.46605761588934L72.06114630873253,25.375269293563957L72.78077024363093,25.143488288210108L73.5003941785293,25.594771404150112L74.2200181134277,26.380080937644166L74.93964204832608,26.559659773621636L75.65926598322447,27.54853246776301L76.37888991812284,27.389547767103327L77.09851385302123,28.30375196243074L77.81813778791961,28.68068704521695L78.537761722818,29.997109377254674L79.2573856577164,29.779142128514486L79.97700959261478,30.857897007019904L80.69663352751317,30.690597065810106L81.41625746241155,31.24422679363246L82.13588139730993,31.821216781418077L82.85550533220831,32.46400342921572L83.5751292671067,33.07723976982518L84.2947532020051,34.07358437383206L85.01437713690348,34.18461729176573L85.73400107180187,35.23906737994113L86.45362500670025,35.63765919470769L87.17324894159864,36.79406796265055L87.89287287649701,36.829150519129655L88.6124968113954,38.1197837988325L89.33212074629378,38.49887780817126L90.05174468119218,38.4379049996751L90.77136861609057,38.63939356683833L91.49099255098895,39.64231615018504L92.21061648588734,39.94188407596658L92.93024042078572,40.83851325982704L93.6498643556841,41.5317816824045L94.36948829058248,42.193948069334105L95.08911222548087,43.33308542485646L95.80873616037927,43.30340018475874L96.52836009527765,43.09739136512609L97.24798403017604,45.43820747974032L97.96760796507442,44.66848269729758L98.68723189997282,46.20891052577719L99.40685583487118,47.1118225232379L100.12647976976957,47.86364339524671L100.84610370466795,49.358818099191026L101.56572763956635,49.63878701986259L102.28535157446474,50.064694315503154L103.00497550936312,49.75041026927546L103.72459944426151,51.10017789658204L104.4442233791599,52.20681328752014L105.16384731405827,52.767965525049085L105.88347124895665,53.28119971307937L106.60309518385505,53.44563232996153L107.32271911875344,55.25902100112375L108.04234305365182,55.64644711762628L108.76196698855021,56.42604730238564L109.48159092344859,56.399592018809905L110.20121485834699,57.500349394876395L110.92083879324537,57.95655756201443L111.64046272814375,59.91609544081681L112.36008666304213,59.416211177523635L113.07971059794052,61.66135142597066L113.79933453283891,61.712280166013294L114.51895846773729,62.83486294019706L115.23858240263569,63.3606037222799L115.95820633753407,64.45400725477671L116.67783027243246,64.54849402467863L117.39745420733082,66.53437755406773L118.11707814222922,65.35014730684011L118.83670207712761,67.16239748157814L119.55632601202599,68.49427806506446L120.27594994692438,68.16131424417301L120.99557388182276,69.51956577816662L121.71519781672116,71.20074549790502L122.43482175161954,70.89819218150004L123.15444568651792,71.21491345340618L123.8740696214163,74.53796524967403L124.59369355631469,72.60114669951463L125.31331749121308,74.47074336080505L126.03294142611146,75.05604858914074L126.75256536100986,74.84766157697753L127.47218929590824,76.95436909354842L128.19181323080662,79.00152059717328L128.911437165705,79.60595256543559L129.63106110060338,78.89296707145233L130.35068503550178,81.56936133208023L131.07030897040016,81.25729524555302L131.78993290529854,79.78216651198153L132.50955684019695,83.81350645031942L133.22918077509533,83.84050989884015L133.9488047099937,83.14032616464903L134.6684286448921,85.42110556782698L135.38805257979047,87.39013091683104L136.10767651468888,86.16650869332604L136.82730044958726,88.96869415886802L137.54692438448564,87.83028206773442L138.26654831938401,90.5268656649515L138.98617225428242,90.87298544452264L139.7057961891808,91.60599160895815L140.42542012407918,92.11479831089432L141.14504405897756,95.05416837889922L141.86466799387594,94.67035171772673L142.58429192877435,94.74895013753093L143.30391586367273,97.778193956593L144.0235397985711,99.44542498680819L144.7431637334695,98.9470165522131L145.4627876683679,99.76976153479626L146.18241160326627,99.40004536267021L146.90203553816465,101.44273564697353L147.62165947306303,101.91788502128756L148.3412834079614,105.27589287443186L149.06090734285982,105.70893474766409L149.7805312777582,106.2519469421674L150.50015521265658,106.86337855511182L151.21977914755496,104.27141856262547L151.93940308245334,109.22962108986655L152.65902701735175,109.70224890543362L153.37865095225013,108.8456273292503L154.09827488714853,108.25320438993661L154.81789882204689,111.23056650528248L155.53752275694526,113.01975158579685L156.25714669184367,114.17616878704655L156.97677062674205,112.49515773344507L157.69639456164046,116.14595313366672L158.4160184965388,115.36197606265435L159.13564243143722,116.85583517073069L159.8552663663356,116.52098228910573L160.574890301234,119.02616355414735L161.29451423613236,117.46234173247709L162.01413817103074,121.39545051267346L162.73376210592915,120.99541238578283L163.45338604082752,123.34289502945876L164.17300997572593,122.83763031639789L164.89263391062428,124.42158244150941L165.6122578455227,127.03610996311552L166.33188178042107,126.87616386547538L167.05150571531945,129.56915487397612L167.77112965021783,128.52148516450484L168.4907535851162,129.80943665263067L169.21037752001462,131.49450412682503L169.930001454913,132.53373209614352L170.6496253898114,133.22235376664887L171.36924932470976,130.72799665094402L172.08887325960816,132.73404000034833L172.80849719450654,129.84316988001444L173.52812112940492,137.01101686718795L174.2477450643033,136.29803980651155L174.96736899920168,137.43453753699112L175.6869929341001,136.61654472281563L176.40661686899847,138.8783997854313L177.12624080389688,140.25392694849882L177.84586473879523,141.66221750866282L178.5654886736936,138.44308935265752L179.28511260859202,138.67551128933167L180.0047365434904,142.1119488961432L180.7243604783888,140.75628217069786L181.44398441328715,139.72542847507736L182.16360834818556,143.50037901868498L182.88323228308394,144.74345688108357L183.60285621798235,146.2107299893281L184.3224801528807,145.18322009987202L185.04210408777908,147.76389211114508L185.7617280226775,148.84808225591271L186.48135195757587,145.3034664055349L187.20097589247428,151.6057314280013L187.92059982737263,146.83683133953102L188.64022376227103,152.8875350354364L189.3598476971694,149.7322512289083L190.07947163206782,150.880483905864L190.79909556696617,152.9124048573251L191.51871950186455,150.10436246017863L192.23834343676296,150.382535086492L192.95796737166134,154.33337278600524L193.67759130655975,152.58111083118914L194.3972152414581,155.50260650533406L195.1168391763565,151.49831639870453L195.8364631112549,157.65355514961877L196.55608704615327,153.20137211640127L197.27571098105165,158.99297300109868L197.99533491595002,152.47185734099997L198.71495885084843,153.4419047859345L199.4345827857468,155.01572640119736L200.15420672064522,152.92505903424743L200.87383065554357,157.50826613927688L201.59345459044198,159.64671873114264L202.31307852534036,152.39071627918176L203.03270246023874,162.28741269556494L203.75232639513712,155.42946654338593L204.4719503300355,156.66192054748535L205.1915742649339,157.398367501114L205.91119819983228,155.43460664390852L206.6308221347307,154.41667277437605L207.35044606962904,157.58096967759576L208.07007000452742,156.8203676248336L208.78969393942583,159.6003292185098L209.5093178743242,161.9788295647651L210.22894180922262,157.73224633579824L210.94856574412097,156.3917574543489L211.66818967901938,162.07343229263617L212.38781361391776,159.48109912632188L213.10743754881616,156.8004502623902L213.82706148371452,161.5345397685271L214.5466854186129,159.26015702859178L215.2663093535113,161.6286533646011L215.98593328840968,157.9757770459152L216.7055572233081,154.6413529353656L217.42518115820644,160.7886285362906L218.14480509310485,160.8434471391159L218.86442902800323,157.23266777987826L219.5840529629016,157.9200982457916L220.3036768978,162.86719199958986L221.02330083269837,159.73737467140978L221.74292476759678,166.88307157815245L222.46254870249516,160.89735494480186L223.18217263739356,164.16888977787457L223.90179657229191,162.16889100115208L224.62142050719032,161.46519479465965L225.3410444420887,160.20663759754532L226.06066837698708,153.1399734259094L226.78029231188546,165.22176705432324L227.49991624678384,158.81125843016247L228.21954018168225,158.42049694080237L228.93916411658063,160.8490826964157L229.65878805147904,163.7979992677702L230.3784119863774,158.08873908278989L231.0980359212758,163.9412389845485L231.81765985617417,160.47221086343086L232.53728379107255,165.136643363347L233.25690772597096,159.55369303165176L233.9765316608693,157.31107645027836L234.69615559576772,159.87481859805823L235.4157795306661,164.32269853645755L236.1354034655645,163.12401992627616L236.85502740046286,161.7350479637695L237.57465133536124,164.35760399349292L238.29427527025965,163.19676352280254L239.01389920515803,162.45234076922432L239.73352314005643,161.32416460427498L240.45314707495479,161.435669787392L241.1727710098532,167.45321161245244L241.89239494475157,162.04627704459224L242.61201887964998,163.92567320843762L243.33164281454833,161.8455959665595L244.0512667494467,167.31685558238712L244.77089068434512,160.87423925073716L245.4905146192435,160.53925776118282L246.2101385541419,166.3594749643352L246.92976248904026,167.058922892504L247.64938642393867,162.25977253237738L248.36901035883704,165.26331584882647L249.08863429373542,165.46771390685154L249.8082582286338,162.08476244038368L250.52788216353218,163.6325630873734L251.2475060984306,164.34299539770905L251.96713003332897,160.03458127127445L252.68675396822738,165.47022492396493L253.40637790312573,168.22025038666476L254.12600183802414,164.4230970544585L254.84562577292252,161.33370689097114L255.5652497078209,165.95711135308179L256.2848736427193,162.68528346259617L257.00449757761766,160.39768573083327L257.7241215125161,167.25840011598447L258.4437454474144,161.1384020460527L259.16336938231285,162.71417175519696L259.88299331721123,162.38482371461572L260.6026172521096,163.0226431446811L261.322241187008,166.75566328665067L262.04186512190637,164.5348552367809L262.76148905680475,164.85164397514185L263.4811129917031,160.88035339820047L264.20073692660156,164.27368204874224L264.9203608614999,171.05376137048597L265.6399847963983,160.95904669270666L266.3596087312967,166.61119019874616L267.0792326661951,167.25501414328585L267.79885660109346,163.7838987787238L268.51848053599184,162.98239097110542L269.2381044708902,160.63543962576077L269.9577284057886,166.51277983283416L270.67735234068704,166.67784705605646L271.39697627558536,162.89342169220745L272.1166002104838,165.70868721666747L272.8362241453822,169.04922336635366L273.55584808028055,164.08406125263798L274.27547201517893,166.18414862333478L274.9950959500773,161.87153892674434L275.7147198849757,163.60465305836675L276.4343438198741,167.6501166773449L277.1539677547725,166.89940689351303L277.87359168967083,162.27310769882754L278.5932156245692,166.33098092882946L279.31283955946765,163.18602792318762L280.032463494366,165.90441583525492L280.7520874292644,167.214251754646L281.4717113641628,163.42037054549596L282.19133529906117,165.25423106902667L282.91095923395955,156.38508249198034L283.630583168858,165.8526437645277L284.3502071037563,166.10981113181455L285.0698310386547,168.1708038003003L285.7894549735531,166.33791943203698L286.5090789084515,167.51024606665155L287.2287028433499,163.9212457223435L287.94832677824826,168.55128087196178L288.66795071314664,165.81338672115984L289.387574648045,163.0182578251212L290.1071985829434,167.9061624148212L290.82682251784183,167.2889286867668L291.54644645274016,162.37823097698887L292.2660703876386,166.15482601543144L292.985694322537,164.8221358344879L293.70531825743535,164.028882125945L294.42494219233373,164.9217205383782L295.1445661272321,163.54839657672417L295.8641900621305,168.85700300341412L296.58381399702887,166.82992487840932L297.3034379319273,167.28359462018673L298.0230618668256,168.17000263614992L298.74268580172406,160.91451461590665L299.46230973662244,171.26878117848352" style="fill: none;" fill="none"></path></g><g><path stroke="rgb(0, 119, 187)" stroke-width="2px" d="M1.5380006886907345,4.887983973513513L2.25762462358912,4.925731454955941L2.977248558487506,4.966194461202763L3.6968724933858916,5.008613994637864L4.416496428284278,5.041031626153654L5.136120363182663,5.088646076605844L5.855744298081049,5.139819382547009L6.575368232979435,5.17254061310926L7.294992167877821,5.225721046079768L8.014616102776207,5.29398023169081L8.734240037674592,5.33245297752199L9.453863972572979,5.392447522424023L10.173487907471364,5.446235153487434L10.89311184236975,5.501979311739105L11.612735777268135,5.567590439000538L12.332359712166522,5.6372664201617L13.051983647064906,5.684324272362052L13.771607581963293,5.794851191884964L14.491231516861678,5.841200646310246L15.210855451760064,5.924150652446934L15.93047938665845,5.981345339476108L16.650103321556834,6.1290125423485255L17.36972725645522,6.200155918900893L18.089351191353607,6.28799724300821L18.808975126251994,6.394121976357548L19.52859906115038,6.4658388177754365L20.248222996048764,6.6715777715890106L20.96784693094715,6.744390942896876L21.687470865845537,6.923126448189747L22.407094800743923,7.059644819411851L23.126718735642307,7.232864942027469L23.846342670540693,7.320335200633579L24.56596660543908,7.436984700926647L25.285590540337466,7.66559478290641L26.00521447523585,7.614117877918784L26.724838410134236,7.846489214751855L27.444462345032623,8.043002130875971L28.16408627993101,8.415973559444577L28.883710214829392,8.405668058478842L29.60333414972778,8.535287984700954L30.322958084626165,8.787494459235678L31.042582019524552,8.797884293269878L31.762205954422935,9.112935770420538L32.481829889321325,9.529473662155267L33.201453824219705,9.741470129648546L33.92107775911809,10.094218488400571L34.64070169401648,10.047126902972837L35.360325628914865,10.613001792335503L36.07994956381325,10.77288042352085L36.79957349871164,10.941867026099825L37.519197433610024,11.139543738568685L38.238821368508404,11.494434157259583L38.95844530340679,11.626955141036701L39.67806923830518,12.118802462905695L40.39769317320357,12.184717189213568L41.11731710810195,12.5667628559484L41.83694104300034,13.009747597951993L42.556564977898724,13.367994472767588L43.27618891279711,13.108451021276903L43.99581284769549,13.613201302620174L44.715436782593876,14.371676053730438L45.43506071749226,14.517116863595536L46.15468465239064,14.76805834210337L46.874308587289036,15.150458207725727L47.59393252218742,15.55991212170987L48.3135564570858,15.888372556745585L49.03318039198419,16.495553783039654L49.752804326882575,16.54775595241603L50.47242826178096,16.705796122708968L51.19205219667934,17.40879658138664L51.91167613157773,17.881719562693323L52.63130006647612,18.437474483840866L53.35092400137451,18.23967970507616L54.07054793627289,19.21517717455986L54.790171871171275,19.37242461400928L55.50979580606966,19.727854764338336L56.22941974096805,20.139062806146423L56.94904367586643,20.5045960580769L57.668667610764814,20.829514504237324L58.38829154566321,21.35194099672969L59.107915480561594,22.270614844685465L59.827539415459974,22.749980872422448L60.54716335035836,22.575748752985298L61.26678728525675,22.89672041154182L61.986411220155134,24.123867757308425L62.70603515505351,24.23201648430079L63.4256590899519,24.585102175326657L64.14528302485029,25.234939067647502L64.86490695974868,25.33052216743939L65.58453089464706,25.85549551859924L66.30415482954544,26.67821520126188L67.02377876444383,27.57292159116149L67.74340269934223,27.517801497616404L68.4630266342406,28.457373079936424L69.18265056913899,29.217821224848628L69.90227450403738,29.583826741962476L70.62189843893576,29.357611719126943L71.34152237383415,30.545797187265315L72.06114630873253,31.689201796051712L72.78077024363093,31.337920832690873L73.5003941785293,31.883555785623276L74.2200181134277,32.854819735070336L74.93964204832608,33.03487083623118L75.65926598322447,34.28026785801239L76.37888991812284,34.02564945771973L77.09851385302123,35.15348618206854L77.81813778791961,35.60218870611366L78.537761722818,37.25351451961742L79.2573856577164,36.92294575787021L79.97700959261478,38.249757923942155L80.69663352751317,38.00770515084996L81.41625746241155,38.66425495542016L82.13588139730993,39.35966543793649L82.85550533220831,40.13261174359438L83.5751292671067,40.87440541376338L84.2947532020051,42.10097929466444L85.01437713690348,42.20605829796489L85.73400107180187,43.49638797862127L86.45362500670025,43.94966135497692L87.17324894159864,45.36839656566963L87.89287287649701,45.385786044385945L88.6124968113954,46.95412811852565L89.33212074629378,47.39669119518695L90.05174468119218,47.293779551745935L90.77136861609057,47.48440601969159L91.49099255098895,48.69233385915628L92.21061648588734,49.03422011869075L92.93024042078572,50.129875344115426L93.6498643556841,50.95380942296389L94.36948829058248,51.71894648648245L95.08911222548087,53.12039341814097L95.80873616037927,52.99644067411932L96.52836009527765,52.752195241247165L97.24798403017604,55.62516145114712L97.96760796507442,54.629196345948316L98.68723189997282,56.52875654646235L99.40685583487118,57.561659535646385L100.12647976976957,58.475113166664514L100.84610370466795,60.32707578334006L101.56572763956635,60.647625776554285L102.28535157446474,61.09839446077668L103.00497550936312,60.67911574431703L103.72459944426151,62.33276071720342L104.4442233791599,63.639366680072484L105.16384731405827,64.32916901353624L105.88347124895665,64.89721126275832L106.60309518385505,65.05716579370528L107.32271911875344,67.25721315044704L108.04234305365182,67.72015109644813L108.76196698855021,68.6445342931386L109.48159092344859,68.57760757000922L110.20121485834699,69.88246783836117L110.92083879324537,70.4531834458534L111.64046272814375,72.80658205428176L112.36008666304213,72.14414580153307L113.07971059794052,74.85111079947752L113.79933453283891,74.90360813459353L114.51895846773729,76.21893413674128L115.23858240263569,76.81201487398894L115.95820633753407,78.14263889475524L116.67783027243246,78.1963421927502L117.39745420733082,80.64027235016972L118.11707814222922,79.0454328259201L118.83670207712761,81.33809475844399L119.55632601202599,82.9227046814895L120.27594994692438,82.45836680655198L120.99557388182276,84.07323543456073L121.71519781672116,86.15175883965249L122.43482175161954,85.67369154116977L123.15444568651792,85.97276190184739L123.8740696214163,90.110808471707L124.59369355631469,87.54621455993572L125.31331749121308,89.83821026121878L126.03294142611146,90.55932546300154L126.75256536100986,90.19820283055147L127.47218929590824,92.71837851516517L128.19181323080662,95.24508157927764L128.911437165705,95.92268091773532L129.63106110060338,94.90941066688865L130.35068503550178,98.21738371051595L131.07030897040016,97.7956509017641L131.78993290529854,95.81168173302906L132.50955684019695,100.82497905389465L133.22918077509533,100.66862554497092L133.9488047099937,99.6737989361963L134.6684286448921,102.52059659495329L135.38805257979047,104.88252970990976L136.10767651468888,103.22705470943778L136.82730044958726,106.73698015210485L137.54692438448564,105.10322935006803L138.26654831938401,108.51806925804709L138.98617225428242,108.80233073190325L139.7057961891808,109.54704232624093L140.42542012407918,110.08603183337873L141.14504405897756,113.75340711485951L141.86466799387594,113.07926543220866L142.58429192877435,113.0643131791708L143.30391586367273,116.80448476534576L144.0235397985711,118.86492716055982L144.7431637334695,118.03344527208422L145.4627876683679,118.97125429327343L146.18241160326627,118.29764390895389L146.90203553816465,120.80058613102788L147.62165947306303,121.27502289091345L148.3412834079614,125.41635845044297L149.06090734285982,125.8555355544056L149.7805312777582,126.34911592083144L150.50015521265658,126.98569565479046L151.21977914755496,123.3327834945505L151.93940308245334,129.67293514802228L152.65902701735175,130.07720679494957L153.37865095225013,128.7511072433061L154.09827488714853,127.74431377211711L154.81789882204689,131.44782999008615L155.53752275694526,133.55619886810572L156.25714669184367,134.830138416907L156.97677062674205,132.37891344906575L157.69639456164046,136.93738566511607L158.4160184965388,135.5583797629746L159.13564243143722,137.26084936584556L159.8552663663356,136.5534256377272L160.574890301234,139.52643616674055L161.29451423613236,137.1300150434376L162.01413817103074,142.0351130374698L162.73376210592915,141.14724184276886L163.45338604082752,143.91730484253463L164.17300997572593,142.854847329509L164.89263391062428,144.5877021369459L165.6122578455227,147.6412170131106L166.33188178042107,147.00996291242478L167.05150571531945,150.1536467053863L167.77112965021783,148.34989308729558L168.4907535851162,149.5937889804582L169.21037752001462,151.34529826263835L169.930001454913,152.1920908196927L170.6496253898114,152.6313649066841L171.36924932470976,148.77851590774054L172.08887325960816,150.85754531124306L172.80849719450654,146.49995446426306L173.52812112940492,155.4601701052853L174.2477450643033,153.93138024025308L174.96736899920168,154.84929298226598L175.6869929341001,153.15732495474492L176.40661686899847,155.53535514414355L177.12624080389688,156.7091470658226L177.84586473879523,157.9396677343276L178.5654886736936,153.10233979410938L179.28511260859202,152.8291765520625L180.0047365434904,156.64074029734175L180.7243604783888,154.3109633813889L181.44398441328715,152.36251951774236L182.16360834818556,156.57605261717998L182.88323228308394,157.57165087353098L183.60285621798235,158.84776621549855L184.3224801528807,156.95878559842274L185.04210408777908,159.6361581226448L185.7617280226775,160.4623438944211L186.48135195757587,155.55064894610868L187.20097589247428,162.8556910773787L187.92059982737263,156.66207234700857L188.64022376227103,163.72824949517414L189.3598476971694,157.2232077179238L190.07947163206782,160.5560716667069L190.79909556696617,162.13148717696365L191.51871950186455,158.31061095259975L192.23834343676296,158.28086035437397L192.95796737166134,162.49611595673488L193.67759130655975,160.36748605901795L194.3972152414581,163.46250967147841L195.1168391763565,158.74858209368344L195.8364631112549,165.3914367547567L196.55608704615327,160.0092412925291L197.27571098105165,166.05874956718907L197.99533491595002,158.820096535737L198.71495885084843,159.7714452310674L199.4345827857468,161.2912704909224L200.15420672064522,158.78224996293915L200.87383065554357,163.48169966120633L201.59345459044198,165.57318927557372L202.31307852534036,157.6920384370835L203.03270246023874,168.07800790842097L203.75232639513712,160.7661811817934L204.4719503300355,161.8298615243117L205.1915742649339,162.4181205183702L205.91119819983228,160.32218655129498L206.6308221347307,159.1802345796128L207.35044606962904,162.3960379043941L208.07007000452742,161.55686905672846L208.78969393942583,164.21565246433534L209.5093178743242,166.5897991159314L210.22894180922262,162.24238727031448L210.94856574412097,160.78462482386547L211.66818967901938,166.47017476664846L212.38781361391776,163.83268124217415L213.10743754881616,161.02064145758268L213.82706148371452,165.7338964791567L214.5466854186129,163.42358152707754L215.2663093535113,165.77041058947293L215.98593328840968,162.13887053710724L216.7055572233081,158.7713604554743L217.42518115820644,164.81543135554537L218.14480509310485,164.81047678777338L218.86442902800323,161.30386141804337L219.5840529629016,161.93927735565765L220.3036768978,166.78361548219155L221.02330083269837,163.7579621435191L221.74292476759678,170.6325176935312L222.46254870249516,164.78227791800728L223.18217263739356,167.9411437716182L223.90179657229191,165.99950980324977L224.62142050719032,165.31898410731654L225.3410444420887,164.11561447020205L226.06066837698708,157.38043407410612L226.78029231188546,168.89823133225724L227.49991624678384,162.77691766645748L228.21954018168225,162.41519837754808L228.93916411658063,164.70765158572755L229.65878805147904,167.51709391181043L230.3784119863774,162.11443081386773L231.0980359212758,167.6397985264189L231.81765985617417,164.3907700809913L232.53728379107255,168.76830569866195L233.25690772597096,163.51570275440918L233.9765316608693,161.39919995193674L234.69615559576772,163.79589937436558L235.4157795306661,168.00532967002266L236.1354034655645,166.83922049088025L236.85502740046286,165.5770938966434L237.57465133536124,168.03765453516314L238.29427527025965,166.93027701322262L239.01389920515803,166.21355978096L239.73352314005643,165.14870088381L240.45314707495479,165.2376617294011L241.1727710098532,170.84588246506024L241.89239494475157,165.75573031058084L242.61201887964998,167.4769239629765L243.33164281454833,165.46455985009115L244.0512667494467,170.54252587617816L244.77089068434512,164.20746583171464L245.4905146192435,163.6074149663588L246.2101385541419,169.61056956994005L246.92976248904026,169.91126545051222L247.64938642393867,165.07256709793157L248.36901035883704,168.0089201504123L249.08863429373542,168.14349464440642L249.8082582286338,164.58141552387735L250.52788216353218,166.026209652724L251.2475060984306,166.794471256429L251.96713003332897,162.22990386785577L252.68675396822738,167.6698105571569L253.40637790312573,170.44152226841103L254.12600183802414,166.63131839386068L254.84562577292252,163.4702177139356L255.5652497078209,167.96154815753195L256.2848736427193,164.61985242815442L257.00449757761766,162.45412652194895L257.7241215125161,169.19438587709286L258.4437454474144,163.03967631618318L259.16336938231285,164.48514089292408L259.88299331721123,164.0764333265958L260.6026172521096,164.73581672226626L261.322241187008,168.51357134040015L262.04186512190637,166.26361567374408L262.76148905680475,166.48807867708237L263.4811129917031,162.4991856804268L264.20073692660156,165.92905795785876L264.9203608614999,172.67043050950633L265.6399847963983,162.55424674082394L266.3596087312967,168.23031132173196L267.0792326661951,168.83865212771735L267.79885660109346,165.34742121800105L268.51848053599184,164.51566103039954L269.2381044708902,162.21210115710397L269.9577284057886,168.00942825714978L270.67735234068704,168.17542103579845L271.39697627558536,164.4112018751523L272.1166002104838,167.20101146289784L272.8362241453822,170.53103760392727L273.55584808028055,165.56652696316544L274.27547201517893,167.66415602491668L274.9950959500773,163.42823882078324L275.7147198849757,165.05191182113913L276.4343438198741,169.0935425021558L277.1539677547725,168.32510801566048L277.87359168967083,163.71318971747402L278.5932156245692,167.78764072040838L279.31283955946765,164.6086298050692L280.032463494366,167.28072097087897L280.7520874292644,168.5772217238199L281.4717113641628,164.85485706505014L282.19133529906117,166.6812498953688L282.91095923395955,157.937099792393L283.630583168858,167.2780286376684L284.3502071037563,167.50287324814147L285.0698310386547,169.5382708303498L285.7894549735531,167.73443287919062L286.5090789084515,168.8481311646122L287.2287028433499,165.33511069833267L287.94832677824826,169.8229476445681L288.66795071314664,167.1574239164646L289.387574648045,164.382697298013L290.1071985829434,169.22735799853376L290.82682251784183,168.6176278052455L291.54644645274016,163.81979304098684L292.2660703876386,167.54004515639167L292.985694322537,166.19436557457865L293.70531825743535,165.40324549266774L294.42494219233373,166.27144178249713L295.1445661272321,164.89592305273646L295.8641900621305,170.1372485574095L296.58381399702887,168.11196040178274" style="fill: none;" fill="none"></path></g></g></g></g></g></g><g transform="translate(30, 177)" clip-path="url(#clip_1)"><clipPath id="clip_1"><rect width="299" height="22"></rect></clipPath><g><g><line x1="1.5380006886907345" y1="0" x2="1.5380006886907345" y2="5" style="visibility: inherit;" fill="rgb(0, 0, 0)" stroke="rgb(204, 204, 204)" stroke-width="1px"></line><line x1="37.519197433610024" y1="0" x2="37.519197433610024" y2="5" style="visibility: inherit;" fill="rgb(0, 0, 0)" stroke="rgb(204, 204, 204)" stroke-width="1px"></line><line x1="73.5003941785293" y1="0" x2="73.5003941785293" y2="5" style="visibility: inherit;" fill="rgb(0, 0, 0)" stroke="rgb(204, 204, 204)" stroke-width="1px"></line><line x1="109.48159092344859" y1="0" x2="109.48159092344859" y2="5" style="visibility: inherit;" fill="rgb(0, 0, 0)" stroke="rgb(204, 204, 204)" stroke-width="1px"></line><line x1="145.4627876683679" y1="0" x2="145.4627876683679" y2="5" style="visibility: inherit;" fill="rgb(0, 0, 0)" stroke="rgb(204, 204, 204)" stroke-width="1px"></line><line x1="181.44398441328715" y1="0" x2="181.44398441328715" y2="5" style="visibility: inherit;" fill="rgb(0, 0, 0)" stroke="rgb(204, 204, 204)" stroke-width="1px"></line><line x1="217.42518115820644" y1="0" x2="217.42518115820644" y2="5" style="visibility: inherit;" fill="rgb(0, 0, 0)" stroke="rgb(204, 204, 204)" stroke-width="1px"></line><line x1="253.40637790312573" y1="0" x2="253.40637790312573" y2="5" style="visibility: inherit;" fill="rgb(0, 0, 0)" stroke="rgb(204, 204, 204)" stroke-width="1px"></line><line x1="289.387574648045" y1="0" x2="289.387574648045" y2="5" style="visibility: inherit;" fill="rgb(0, 0, 0)" stroke="rgb(204, 204, 204)" stroke-width="1px"></line></g><g transform="translate(0, 8)"><text x="1.5380006886907345" y="0" dx="0em" dy="0.95em" style="text-anchor: middle; visibility: hidden; font-family: Roboto, sans-serif; font-size: 12px; font-weight: 200;" fill="rgb(255, 255, 255)" stroke="none" stroke-width="1px">0</text><text x="37.519197433610024" y="0" dx="0em" dy="0.95em" style="text-anchor: middle; visibility: inherit; font-family: Roboto, sans-serif; font-size: 12px; font-weight: 200;" fill="rgb(255, 255, 255)" stroke="none" stroke-width="1px">50</text><text x="73.5003941785293" y="0" dx="0em" dy="0.95em" style="text-anchor: middle; visibility: inherit; font-family: Roboto, sans-serif; font-size: 12px; font-weight: 200;" fill="rgb(255, 255, 255)" stroke="none" stroke-width="1px">100</text><text x="109.48159092344859" y="0" dx="0em" dy="0.95em" style="text-anchor: middle; visibility: inherit; font-family: Roboto, sans-serif; font-size: 12px; font-weight: 200;" fill="rgb(255, 255, 255)" stroke="none" stroke-width="1px">150</text><text x="145.4627876683679" y="0" dx="0em" dy="0.95em" style="text-anchor: middle; visibility: inherit; font-family: Roboto, sans-serif; font-size: 12px; font-weight: 200;" fill="rgb(255, 255, 255)" stroke="none" stroke-width="1px">200</text><text x="181.44398441328715" y="0" dx="0em" dy="0.95em" style="text-anchor: middle; visibility: inherit; font-family: Roboto, sans-serif; font-size: 12px; font-weight: 200;" fill="rgb(255, 255, 255)" stroke="none" stroke-width="1px">250</text><text x="217.42518115820644" y="0" dx="0em" dy="0.95em" style="text-anchor: middle; visibility: inherit; font-family: Roboto, sans-serif; font-size: 12px; font-weight: 200;" fill="rgb(255, 255, 255)" stroke="none" stroke-width="1px">300</text><text x="253.40637790312573" y="0" dx="0em" dy="0.95em" style="text-anchor: middle; visibility: inherit; font-family: Roboto, sans-serif; font-size: 12px; font-weight: 200;" fill="rgb(255, 255, 255)" stroke="none" stroke-width="1px">350</text><text x="289.387574648045" y="0" dx="0em" dy="0.95em" style="text-anchor: middle; visibility: inherit; font-family: Roboto, sans-serif; font-size: 12px; font-weight: 200;" fill="rgb(255, 255, 255)" stroke="none" stroke-width="1px">400</text></g><line x1="0" y1="0" x2="299.21875" y2="0" fill="rgb(0, 0, 0)" stroke="rgb(204, 204, 204)" stroke-width="1px"></line></g></g></g></g></svg>