<svg xmlns="http://www.w3.org/2000/svg" width="1300" height="760" viewBox="0 0 1300 760"><defs><style>.t{font-family:'Times New Roman',serif;fill:#111}.title{font-size:34px;font-weight:700}.h{font-size:26px;font-weight:700}.m{font-size:19px;font-weight:700}.s{font-size:16px;font-weight:700}.arrow{stroke-width:3.5;fill:none;marker-end:url(#a)}.d{stroke-dasharray:8 6}</style><marker id="a" markerWidth="10" markerHeight="10" refX="9" refY="5" orient="auto"><path d="M0,0 L10,5 L0,10 z" fill="currentColor"/></marker></defs><rect x="20" y="20" width="1260" height="720" fill="#d9d9d9" stroke="#666" stroke-width="4"/><text x="650" y="66" class="t title" text-anchor="middle">基于双流并行的三阶段流水线调度时序</text><rect x="90" y="130" width="330" height="120" fill="#f8cecc" stroke="#b85450" stroke-width="4"/><text x="255" y="200" class="t h" text-anchor="middle">Warmup</text><rect x="470" y="130" width="360" height="120" fill="#dae8fc" stroke="#6c8ebf" stroke-width="4"/><text x="650" y="200" class="t h" text-anchor="middle">Pipelining</text><rect x="880" y="130" width="300" height="120" fill="#d5e8d4" stroke="#82b366" stroke-width="4"/><text x="1030" y="200" class="t h" text-anchor="middle">Cooling</text><rect x="90" y="320" width="180" height="70" fill="#efefef" stroke="#666" stroke-width="4"/><text x="180" y="363" class="t m" text-anchor="middle">intra_stream</text><rect x="90" y="430" width="180" height="70" fill="#efefef" stroke="#666" stroke-width="4"/><text x="180" y="473" class="t m" text-anchor="middle">inter_stream</text><rect x="300" y="330" width="90" height="50" fill="#dae8fc" stroke="#6c8ebf" stroke-width="3"/><text x="345" y="361" class="t s" text-anchor="middle">c0 local</text><rect x="420" y="330" width="90" height="50" fill="#dae8fc" stroke="#6c8ebf" stroke-width="3"/><text x="465" y="361" class="t s" text-anchor="middle">c1 local</text><rect x="370" y="440" width="120" height="50" fill="#f8cecc" stroke="#b85450" stroke-width="3"/><text x="430" y="471" class="t s" text-anchor="middle">c0 inter</text><rect x="540" y="330" width="90" height="50" fill="#d5e8d4" stroke="#82b366" stroke-width="3"/><text x="585" y="361" class="t s" text-anchor="middle">c0 bc</text><rect x="650" y="330" width="90" height="50" fill="#dae8fc" stroke="#6c8ebf" stroke-width="3"/><text x="695" y="361" class="t s" text-anchor="middle">c2 local</text><rect x="520" y="440" width="120" height="50" fill="#f8cecc" stroke="#b85450" stroke-width="3"/><text x="580" y="471" class="t s" text-anchor="middle">c1 inter</text><rect x="760" y="330" width="90" height="50" fill="#d5e8d4" stroke="#82b366" stroke-width="3"/><text x="805" y="361" class="t s" text-anchor="middle">c1 bc</text><rect x="870" y="330" width="90" height="50" fill="#dae8fc" stroke="#6c8ebf" stroke-width="3"/><text x="915" y="361" class="t s" text-anchor="middle">c3 local</text><rect x="670" y="440" width="120" height="50" fill="#f8cecc" stroke="#b85450" stroke-width="3"/><text x="730" y="471" class="t s" text-anchor="middle">c2 inter</text><rect x="840" y="440" width="120" height="50" fill="#f8cecc" stroke="#b85450" stroke-width="3"/><text x="900" y="471" class="t s" text-anchor="middle">c3 inter</text><rect x="980" y="330" width="90" height="50" fill="#d5e8d4" stroke="#82b366" stroke-width="3"/><text x="1025" y="361" class="t s" text-anchor="middle">c2 bc</text><rect x="1090" y="330" width="90" height="50" fill="#d5e8d4" stroke="#82b366" stroke-width="3"/><text x="1135" y="361" class="t s" text-anchor="middle">c3 bc</text><path d="M345 380 L430 440" class="arrow d" stroke="#9673a6"/><path d="M465 380 L580 440" class="arrow d" stroke="#9673a6"/><path d="M695 380 L730 440" class="arrow d" stroke="#9673a6"/><path d="M915 380 L900 440" class="arrow d" stroke="#9673a6"/><text x="650" y="535" class="t m" fill="#9673a6" text-anchor="middle">CUDA Event 精细同步（local -> inter）</text></svg>