<?xml version="1.0" encoding="utf-8" standalone="no"?>
<!DOCTYPE svg PUBLIC "-//W3C//DTD SVG 1.1//EN"
  "http://www.w3.org/Graphics/SVG/1.1/DTD/svg11.dtd">
<svg xmlns:xlink="http://www.w3.org/1999/xlink" width="705.6pt" height="316.8pt" viewBox="0 0 705.6 316.8" xmlns="http://www.w3.org/2000/svg" version="1.1">
 <metadata>
  <rdf:RDF xmlns:dc="http://purl.org/dc/elements/1.1/" xmlns:cc="http://creativecommons.org/ns#" xmlns:rdf="http://www.w3.org/1999/02/22-rdf-syntax-ns#">
   <cc:Work>
    <dc:type rdf:resource="http://purl.org/dc/dcmitype/StillImage"/>
    <dc:date>2026-04-09T14:10:38.286629</dc:date>
    <dc:format>image/svg+xml</dc:format>
    <dc:creator>
     <cc:Agent>
      <dc:title>Matplotlib v3.8.4, https://matplotlib.org/</dc:title>
     </cc:Agent>
    </dc:creator>
   </cc:Work>
  </rdf:RDF>
 </metadata>
 <defs>
  <style type="text/css">*{stroke-linejoin: round; stroke-linecap: butt}</style>
 </defs>
 <g id="figure_1">
  <g id="patch_1">
   <path d="M 0 316.8 
L 705.6 316.8 
L 705.6 0 
L 0 0 
z
" style="fill: #ffffff"/>
  </g>
  <g id="axes_1">
   <g id="patch_2">
    <path d="M 54.79625 271.24 
L 692.64 271.24 
L 692.64 29.04 
L 54.79625 29.04 
z
" style="fill: #ffffff"/>
   </g>
   <g id="matplotlib.axis_1">
    <g id="xtick_1">
     <g id="line2d_1">
      <path d="M 83.789148 271.24 
L 83.789148 29.04 
" clip-path="url(#pc14d9821ec)" style="fill: none; stroke-dasharray: 2.96,1.28; stroke-dashoffset: 0; stroke: #b0b0b0; stroke-opacity: 0.3; stroke-width: 0.8"/>
     </g>
     <g id="line2d_2">
      <defs>
       <path id="m8170ed8758" d="M 0 0 
L 0 3.5 
" style="stroke: #000000; stroke-width: 0.8"/>
      </defs>
      <g>
       <use xlink:href="#m8170ed8758" x="83.789148" y="271.24" style="stroke: #000000; stroke-width: 0.8"/>
      </g>
     </g>
     <g id="text_1">
      <text style="font: 11px 'Times New Roman'; text-anchor: middle" x="83.789148" y="285.878125" transform="rotate(-0 83.789148 285.878125)">5</text>
     </g>
    </g>
    <g id="xtick_2">
     <g id="line2d_3">
      <path d="M 199.760739 271.24 
L 199.760739 29.04 
" clip-path="url(#pc14d9821ec)" style="fill: none; stroke-dasharray: 2.96,1.28; stroke-dashoffset: 0; stroke: #b0b0b0; stroke-opacity: 0.3; stroke-width: 0.8"/>
     </g>
     <g id="line2d_4">
      <g>
       <use xlink:href="#m8170ed8758" x="199.760739" y="271.24" style="stroke: #000000; stroke-width: 0.8"/>
      </g>
     </g>
     <g id="text_2">
      <text style="font: 11px 'Times New Roman'; text-anchor: middle" x="199.760739" y="285.878125" transform="rotate(-0 199.760739 285.878125)">10</text>
     </g>
    </g>
    <g id="xtick_3">
     <g id="line2d_5">
      <path d="M 431.70392 271.24 
L 431.70392 29.04 
" clip-path="url(#pc14d9821ec)" style="fill: none; stroke-dasharray: 2.96,1.28; stroke-dashoffset: 0; stroke: #b0b0b0; stroke-opacity: 0.3; stroke-width: 0.8"/>
     </g>
     <g id="line2d_6">
      <g>
       <use xlink:href="#m8170ed8758" x="431.70392" y="271.24" style="stroke: #000000; stroke-width: 0.8"/>
      </g>
     </g>
     <g id="text_3">
      <text style="font: 11px 'Times New Roman'; text-anchor: middle" x="431.70392" y="285.878125" transform="rotate(-0 431.70392 285.878125)">20</text>
     </g>
    </g>
    <g id="xtick_4">
     <g id="line2d_7">
      <path d="M 663.647102 271.24 
L 663.647102 29.04 
" clip-path="url(#pc14d9821ec)" style="fill: none; stroke-dasharray: 2.96,1.28; stroke-dashoffset: 0; stroke: #b0b0b0; stroke-opacity: 0.3; stroke-width: 0.8"/>
     </g>
     <g id="line2d_8">
      <g>
       <use xlink:href="#m8170ed8758" x="663.647102" y="271.24" style="stroke: #000000; stroke-width: 0.8"/>
      </g>
     </g>
     <g id="text_4">
      <text style="font: 11px 'Times New Roman'; text-anchor: middle" x="663.647102" y="285.878125" transform="rotate(-0 663.647102 285.878125)">30</text>
     </g>
    </g>
    <g id="text_5">
     <text style="font: 12px 'Times New Roman'; text-anchor: middle" x="373.718125" y="300.563594" transform="rotate(-0 373.718125 300.563594)">Intra/Inter Bandwidth Ratio</text>
    </g>
   </g>
   <g id="matplotlib.axis_2">
    <g id="ytick_1">
     <g id="line2d_9">
      <path d="M 54.79625 247.998586 
L 692.64 247.998586 
" clip-path="url(#pc14d9821ec)" style="fill: none; stroke-dasharray: 2.96,1.28; stroke-dashoffset: 0; stroke: #b0b0b0; stroke-opacity: 0.3; stroke-width: 0.8"/>
     </g>
     <g id="line2d_10">
      <defs>
       <path id="m24d844a063" d="M 0 0 
L -3.5 0 
" style="stroke: #000000; stroke-width: 0.8"/>
      </defs>
      <g>
       <use xlink:href="#m24d844a063" x="54.79625" y="247.998586" style="stroke: #000000; stroke-width: 0.8"/>
      </g>
     </g>
     <g id="text_6">
      <text style="font: 11px 'Times New Roman'; text-anchor: end" x="47.79625" y="251.817648" transform="rotate(-0 47.79625 251.817648)">1.10</text>
     </g>
    </g>
    <g id="ytick_2">
     <g id="line2d_11">
      <path d="M 54.79625 217.417778 
L 692.64 217.417778 
" clip-path="url(#pc14d9821ec)" style="fill: none; stroke-dasharray: 2.96,1.28; stroke-dashoffset: 0; stroke: #b0b0b0; stroke-opacity: 0.3; stroke-width: 0.8"/>
     </g>
     <g id="line2d_12">
      <g>
       <use xlink:href="#m24d844a063" x="54.79625" y="217.417778" style="stroke: #000000; stroke-width: 0.8"/>
      </g>
     </g>
     <g id="text_7">
      <text style="font: 11px 'Times New Roman'; text-anchor: end" x="47.79625" y="221.23684" transform="rotate(-0 47.79625 221.23684)">1.15</text>
     </g>
    </g>
    <g id="ytick_3">
     <g id="line2d_13">
      <path d="M 54.79625 186.83697 
L 692.64 186.83697 
" clip-path="url(#pc14d9821ec)" style="fill: none; stroke-dasharray: 2.96,1.28; stroke-dashoffset: 0; stroke: #b0b0b0; stroke-opacity: 0.3; stroke-width: 0.8"/>
     </g>
     <g id="line2d_14">
      <g>
       <use xlink:href="#m24d844a063" x="54.79625" y="186.83697" style="stroke: #000000; stroke-width: 0.8"/>
      </g>
     </g>
     <g id="text_8">
      <text style="font: 11px 'Times New Roman'; text-anchor: end" x="47.79625" y="190.656032" transform="rotate(-0 47.79625 190.656032)">1.20</text>
     </g>
    </g>
    <g id="ytick_4">
     <g id="line2d_15">
      <path d="M 54.79625 156.256162 
L 692.64 156.256162 
" clip-path="url(#pc14d9821ec)" style="fill: none; stroke-dasharray: 2.96,1.28; stroke-dashoffset: 0; stroke: #b0b0b0; stroke-opacity: 0.3; stroke-width: 0.8"/>
     </g>
     <g id="line2d_16">
      <g>
       <use xlink:href="#m24d844a063" x="54.79625" y="156.256162" style="stroke: #000000; stroke-width: 0.8"/>
      </g>
     </g>
     <g id="text_9">
      <text style="font: 11px 'Times New Roman'; text-anchor: end" x="47.79625" y="160.075224" transform="rotate(-0 47.79625 160.075224)">1.25</text>
     </g>
    </g>
    <g id="ytick_5">
     <g id="line2d_17">
      <path d="M 54.79625 125.675354 
L 692.64 125.675354 
" clip-path="url(#pc14d9821ec)" style="fill: none; stroke-dasharray: 2.96,1.28; stroke-dashoffset: 0; stroke: #b0b0b0; stroke-opacity: 0.3; stroke-width: 0.8"/>
     </g>
     <g id="line2d_18">
      <g>
       <use xlink:href="#m24d844a063" x="54.79625" y="125.675354" style="stroke: #000000; stroke-width: 0.8"/>
      </g>
     </g>
     <g id="text_10">
      <text style="font: 11px 'Times New Roman'; text-anchor: end" x="47.79625" y="129.494416" transform="rotate(-0 47.79625 129.494416)">1.30</text>
     </g>
    </g>
    <g id="ytick_6">
     <g id="line2d_19">
      <path d="M 54.79625 95.094545 
L 692.64 95.094545 
" clip-path="url(#pc14d9821ec)" style="fill: none; stroke-dasharray: 2.96,1.28; stroke-dashoffset: 0; stroke: #b0b0b0; stroke-opacity: 0.3; stroke-width: 0.8"/>
     </g>
     <g id="line2d_20">
      <g>
       <use xlink:href="#m24d844a063" x="54.79625" y="95.094545" style="stroke: #000000; stroke-width: 0.8"/>
      </g>
     </g>
     <g id="text_11">
      <text style="font: 11px 'Times New Roman'; text-anchor: end" x="47.79625" y="98.913608" transform="rotate(-0 47.79625 98.913608)">1.35</text>
     </g>
    </g>
    <g id="ytick_7">
     <g id="line2d_21">
      <path d="M 54.79625 64.513737 
L 692.64 64.513737 
" clip-path="url(#pc14d9821ec)" style="fill: none; stroke-dasharray: 2.96,1.28; stroke-dashoffset: 0; stroke: #b0b0b0; stroke-opacity: 0.3; stroke-width: 0.8"/>
     </g>
     <g id="line2d_22">
      <g>
       <use xlink:href="#m24d844a063" x="54.79625" y="64.513737" style="stroke: #000000; stroke-width: 0.8"/>
      </g>
     </g>
     <g id="text_12">
      <text style="font: 11px 'Times New Roman'; text-anchor: end" x="47.79625" y="68.3328" transform="rotate(-0 47.79625 68.3328)">1.40</text>
     </g>
    </g>
    <g id="ytick_8">
     <g id="line2d_23">
      <path d="M 54.79625 33.932929 
L 692.64 33.932929 
" clip-path="url(#pc14d9821ec)" style="fill: none; stroke-dasharray: 2.96,1.28; stroke-dashoffset: 0; stroke: #b0b0b0; stroke-opacity: 0.3; stroke-width: 0.8"/>
     </g>
     <g id="line2d_24">
      <g>
       <use xlink:href="#m24d844a063" x="54.79625" y="33.932929" style="stroke: #000000; stroke-width: 0.8"/>
      </g>
     </g>
     <g id="text_13">
      <text style="font: 11px 'Times New Roman'; text-anchor: end" x="47.79625" y="37.751992" transform="rotate(-0 47.79625 37.751992)">1.45</text>
     </g>
    </g>
    <g id="text_14">
     <text style="font: 12px 'Times New Roman'; text-anchor: middle" x="21.979375" y="150.14" transform="rotate(-90 21.979375 150.14)">Speedup (x)</text>
    </g>
   </g>
   <g id="line2d_25">
    <path d="M 83.789148 260.230909 
L 199.760739 217.417778 
L 431.70392 174.604646 
L 663.647102 144.023838 
" clip-path="url(#pc14d9821ec)" style="fill: none; stroke: #1f77b4; stroke-width: 2.2; stroke-linecap: square"/>
    <defs>
     <path id="md23b1d714a" d="M 0 3 
C 0.795609 3 1.55874 2.683901 2.12132 2.12132 
C 2.683901 1.55874 3 0.795609 3 0 
C 3 -0.795609 2.683901 -1.55874 2.12132 -2.12132 
C 1.55874 -2.683901 0.795609 -3 0 -3 
C -0.795609 -3 -1.55874 -2.683901 -2.12132 -2.12132 
C -2.683901 -1.55874 -3 -0.795609 -3 0 
C -3 0.795609 -2.683901 1.55874 -2.12132 2.12132 
C -1.55874 2.683901 -0.795609 3 0 3 
z
" style="stroke: #1f77b4"/>
    </defs>
    <g clip-path="url(#pc14d9821ec)">
     <use xlink:href="#md23b1d714a" x="83.789148" y="260.230909" style="fill: #1f77b4; stroke: #1f77b4"/>
     <use xlink:href="#md23b1d714a" x="199.760739" y="217.417778" style="fill: #1f77b4; stroke: #1f77b4"/>
     <use xlink:href="#md23b1d714a" x="431.70392" y="174.604646" style="fill: #1f77b4; stroke: #1f77b4"/>
     <use xlink:href="#md23b1d714a" x="663.647102" y="144.023838" style="fill: #1f77b4; stroke: #1f77b4"/>
    </g>
   </g>
   <g id="line2d_26">
    <path d="M 83.789148 235.766263 
L 199.760739 174.604646 
L 431.70392 125.675354 
L 663.647102 88.978384 
" clip-path="url(#pc14d9821ec)" style="fill: none; stroke: #ff7f0e; stroke-width: 2.2; stroke-linecap: square"/>
    <defs>
     <path id="mb3881d755b" d="M 0 3 
C 0.795609 3 1.55874 2.683901 2.12132 2.12132 
C 2.683901 1.55874 3 0.795609 3 0 
C 3 -0.795609 2.683901 -1.55874 2.12132 -2.12132 
C 1.55874 -2.683901 0.795609 -3 0 -3 
C -0.795609 -3 -1.55874 -2.683901 -2.12132 -2.12132 
C -2.683901 -1.55874 -3 -0.795609 -3 0 
C -3 0.795609 -2.683901 1.55874 -2.12132 2.12132 
C -1.55874 2.683901 -0.795609 3 0 3 
z
" style="stroke: #ff7f0e"/>
    </defs>
    <g clip-path="url(#pc14d9821ec)">
     <use xlink:href="#mb3881d755b" x="83.789148" y="235.766263" style="fill: #ff7f0e; stroke: #ff7f0e"/>
     <use xlink:href="#mb3881d755b" x="199.760739" y="174.604646" style="fill: #ff7f0e; stroke: #ff7f0e"/>
     <use xlink:href="#mb3881d755b" x="431.70392" y="125.675354" style="fill: #ff7f0e; stroke: #ff7f0e"/>
     <use xlink:href="#mb3881d755b" x="663.647102" y="88.978384" style="fill: #ff7f0e; stroke: #ff7f0e"/>
    </g>
   </g>
   <g id="line2d_27">
    <path d="M 83.789148 211.301616 
L 199.760739 144.023838 
L 431.70392 82.862222 
L 663.647102 40.049091 
" clip-path="url(#pc14d9821ec)" style="fill: none; stroke: #2ca02c; stroke-width: 2.2; stroke-linecap: square"/>
    <defs>
     <path id="mc902c61eac" d="M 0 3 
C 0.795609 3 1.55874 2.683901 2.12132 2.12132 
C 2.683901 1.55874 3 0.795609 3 0 
C 3 -0.795609 2.683901 -1.55874 2.12132 -2.12132 
C 1.55874 -2.683901 0.795609 -3 0 -3 
C -0.795609 -3 -1.55874 -2.683901 -2.12132 -2.12132 
C -2.683901 -1.55874 -3 -0.795609 -3 0 
C -3 0.795609 -2.683901 1.55874 -2.12132 2.12132 
C -1.55874 2.683901 -0.795609 3 0 3 
z
" style="stroke: #2ca02c"/>
    </defs>
    <g clip-path="url(#pc14d9821ec)">
     <use xlink:href="#mc902c61eac" x="83.789148" y="211.301616" style="fill: #2ca02c; stroke: #2ca02c"/>
     <use xlink:href="#mc902c61eac" x="199.760739" y="144.023838" style="fill: #2ca02c; stroke: #2ca02c"/>
     <use xlink:href="#mc902c61eac" x="431.70392" y="82.862222" style="fill: #2ca02c; stroke: #2ca02c"/>
     <use xlink:href="#mc902c61eac" x="663.647102" y="40.049091" style="fill: #2ca02c; stroke: #2ca02c"/>
    </g>
   </g>
   <g id="line2d_28">
    <path d="M 83.789148 223.533939 
L 199.760739 156.256162 
L 431.70392 95.094545 
L 663.647102 58.397576 
" clip-path="url(#pc14d9821ec)" style="fill: none; stroke: #d62728; stroke-width: 2.2; stroke-linecap: square"/>
    <defs>
     <path id="md064560afd" d="M 0 3 
C 0.795609 3 1.55874 2.683901 2.12132 2.12132 
C 2.683901 1.55874 3 0.795609 3 0 
C 3 -0.795609 2.683901 -1.55874 2.12132 -2.12132 
C 1.55874 -2.683901 0.795609 -3 0 -3 
C -0.795609 -3 -1.55874 -2.683901 -2.12132 -2.12132 
C -2.683901 -1.55874 -3 -0.795609 -3 0 
C -3 0.795609 -2.683901 1.55874 -2.12132 2.12132 
C -1.55874 2.683901 -0.795609 3 0 3 
z
" style="stroke: #d62728"/>
    </defs>
    <g clip-path="url(#pc14d9821ec)">
     <use xlink:href="#md064560afd" x="83.789148" y="223.533939" style="fill: #d62728; stroke: #d62728"/>
     <use xlink:href="#md064560afd" x="199.760739" y="156.256162" style="fill: #d62728; stroke: #d62728"/>
     <use xlink:href="#md064560afd" x="431.70392" y="95.094545" style="fill: #d62728; stroke: #d62728"/>
     <use xlink:href="#md064560afd" x="663.647102" y="58.397576" style="fill: #d62728; stroke: #d62728"/>
    </g>
   </g>
   <g id="patch_3">
    <path d="M 54.79625 271.24 
L 54.79625 29.04 
" style="fill: none; stroke: #000000; stroke-width: 0.8; stroke-linejoin: miter; stroke-linecap: square"/>
   </g>
   <g id="patch_4">
    <path d="M 692.64 271.24 
L 692.64 29.04 
" style="fill: none; stroke: #000000; stroke-width: 0.8; stroke-linejoin: miter; stroke-linecap: square"/>
   </g>
   <g id="patch_5">
    <path d="M 54.79625 271.24 
L 692.64 271.24 
" style="fill: none; stroke: #000000; stroke-width: 0.8; stroke-linejoin: miter; stroke-linecap: square"/>
   </g>
   <g id="patch_6">
    <path d="M 54.79625 29.04 
L 692.64 29.04 
" style="fill: none; stroke: #000000; stroke-width: 0.8; stroke-linejoin: miter; stroke-linecap: square"/>
   </g>
   <g id="text_15">
    <text style="font: 14px 'Times New Roman'; text-anchor: middle" x="373.718125" y="23.04" transform="rotate(-0 373.718125 23.04)">Fixed Tensor (1024MB): Chunk Curves under Bandwidth Asymmetry</text>
   </g>
   <g id="legend_1">
    <g id="line2d_29">
     <path d="M 64.69625 42.79 
L 75.69625 42.79 
L 86.69625 42.79 
" style="fill: none; stroke: #1f77b4; stroke-width: 2.2; stroke-linecap: square"/>
     <g>
      <use xlink:href="#md23b1d714a" x="75.69625" y="42.79" style="fill: #1f77b4; stroke: #1f77b4"/>
     </g>
    </g>
    <g id="text_16">
     <text style="font: 11px 'Times New Roman'; text-anchor: start" x="95.49625" y="46.64" transform="rotate(-0 95.49625 46.64)">chunk=1</text>
    </g>
    <g id="line2d_30">
     <path d="M 64.69625 58.342969 
L 75.69625 58.342969 
L 86.69625 58.342969 
" style="fill: none; stroke: #ff7f0e; stroke-width: 2.2; stroke-linecap: square"/>
     <g>
      <use xlink:href="#mb3881d755b" x="75.69625" y="58.342969" style="fill: #ff7f0e; stroke: #ff7f0e"/>
     </g>
    </g>
    <g id="text_17">
     <text style="font: 11px 'Times New Roman'; text-anchor: start" x="95.49625" y="62.192969" transform="rotate(-0 95.49625 62.192969)">chunk=2</text>
    </g>
    <g id="line2d_31">
     <path d="M 64.69625 73.895938 
L 75.69625 73.895938 
L 86.69625 73.895938 
" style="fill: none; stroke: #2ca02c; stroke-width: 2.2; stroke-linecap: square"/>
     <g>
      <use xlink:href="#mc902c61eac" x="75.69625" y="73.895938" style="fill: #2ca02c; stroke: #2ca02c"/>
     </g>
    </g>
    <g id="text_18">
     <text style="font: 11px 'Times New Roman'; text-anchor: start" x="95.49625" y="77.745938" transform="rotate(-0 95.49625 77.745938)">chunk=4</text>
    </g>
    <g id="line2d_32">
     <path d="M 64.69625 89.448906 
L 75.69625 89.448906 
L 86.69625 89.448906 
" style="fill: none; stroke: #d62728; stroke-width: 2.2; stroke-linecap: square"/>
     <g>
      <use xlink:href="#md064560afd" x="75.69625" y="89.448906" style="fill: #d62728; stroke: #d62728"/>
     </g>
    </g>
    <g id="text_19">
     <text style="font: 11px 'Times New Roman'; text-anchor: start" x="95.49625" y="93.298906" transform="rotate(-0 95.49625 93.298906)">chunk=8</text>
    </g>
   </g>
  </g>
 </g>
 <defs>
  <clipPath id="pc14d9821ec">
   <rect x="54.79625" y="29.04" width="637.84375" height="242.2"/>
  </clipPath>
 </defs>
</svg>
