<?xml version="1.0" encoding="utf-8" standalone="no"?>
<!DOCTYPE svg PUBLIC "-//W3C//DTD SVG 1.1//EN"
  "http://www.w3.org/Graphics/SVG/1.1/DTD/svg11.dtd">
<svg xmlns:xlink="http://www.w3.org/1999/xlink" width="662.4pt" height="302.4pt" viewBox="0 0 662.4 302.4" xmlns="http://www.w3.org/2000/svg" version="1.1">
 <metadata>
  <rdf:RDF xmlns:dc="http://purl.org/dc/elements/1.1/" xmlns:cc="http://creativecommons.org/ns#" xmlns:rdf="http://www.w3.org/1999/02/22-rdf-syntax-ns#">
   <cc:Work>
    <dc:type rdf:resource="http://purl.org/dc/dcmitype/StillImage"/>
    <dc:date>2026-05-24T19:37:17.670000</dc:date>
    <dc:format>image/svg+xml</dc:format>
    <dc:creator>
     <cc:Agent>
      <dc:title>Matplotlib v3.10.9, https://matplotlib.org/</dc:title>
     </cc:Agent>
    </dc:creator>
   </cc:Work>
  </rdf:RDF>
 </metadata>
 <defs>
  <style type="text/css">*{stroke-linejoin: round; stroke-linecap: butt}</style>
 </defs>
 <g id="figure_1">
  <g id="patch_1">
   <path d="M 0 302.4 
L 662.4 302.4 
L 662.4 0 
L 0 0 
z
" style="fill: #ffffff"/>
  </g>
  <g id="axes_1">
   <g id="patch_2">
    <path d="M 55.4375 253.2175 
L 610.2475 253.2175 
L 610.2475 31.92 
L 55.4375 31.92 
z
" style="fill: #ffffff"/>
   </g>
   <g id="matplotlib.axis_1">
    <g id="xtick_1">
     <g id="line2d_1">
      <path d="M 64.386048 253.2175 
L 64.386048 31.92 
" clip-path="url(#p1528bfc5d0)" style="fill: none; stroke-dasharray: 2.96,1.28; stroke-dashoffset: 0; stroke: #b0b0b0; stroke-opacity: 0.3; stroke-width: 0.8"/>
     </g>
     <g id="line2d_2">
      <defs>
       <path id="m15dd79c6d4" d="M 0 0 
L 0 3.5 
" style="stroke: #000000; stroke-width: 0.8"/>
      </defs>
      <g>
       <use xlink:href="#m15dd79c6d4" x="64.386048" y="253.2175" style="stroke: #000000; stroke-width: 0.8"/>
      </g>
     </g>
     <g id="text_1">
      <!-- 0 -->
      <g transform="translate(61.636048 267.855625) scale(0.11 -0.11)">
       <defs>
        <path id="TimesNewRomanPSMT-30" d="M 231 2094 
Q 231 2819 450 3342 
Q 669 3866 1031 4122 
Q 1313 4325 1613 4325 
Q 2100 4325 2488 3828 
Q 2972 3213 2972 2159 
Q 2972 1422 2759 906 
Q 2547 391 2217 158 
Q 1888 -75 1581 -75 
Q 975 -75 572 641 
Q 231 1244 231 2094 
z
M 844 2016 
Q 844 1141 1059 588 
Q 1238 122 1591 122 
Q 1759 122 1940 273 
Q 2122 425 2216 781 
Q 2359 1319 2359 2297 
Q 2359 3022 2209 3506 
Q 2097 3866 1919 4016 
Q 1791 4119 1609 4119 
Q 1397 4119 1231 3928 
Q 1006 3669 925 3112 
Q 844 2556 844 2016 
z
" transform="scale(0.015625)"/>
       </defs>
       <use xlink:href="#TimesNewRomanPSMT-30"/>
      </g>
     </g>
    </g>
    <g id="xtick_2">
     <g id="line2d_3">
      <path d="M 145.736488 253.2175 
L 145.736488 31.92 
" clip-path="url(#p1528bfc5d0)" style="fill: none; stroke-dasharray: 2.96,1.28; stroke-dashoffset: 0; stroke: #b0b0b0; stroke-opacity: 0.3; stroke-width: 0.8"/>
     </g>
     <g id="line2d_4">
      <g>
       <use xlink:href="#m15dd79c6d4" x="145.736488" y="253.2175" style="stroke: #000000; stroke-width: 0.8"/>
      </g>
     </g>
     <g id="text_2">
      <!-- 5 -->
      <g transform="translate(142.986488 267.855625) scale(0.11 -0.11)">
       <defs>
        <path id="TimesNewRomanPSMT-35" d="M 2778 4238 
L 2534 3706 
L 1259 3706 
L 981 3138 
Q 1809 3016 2294 2522 
Q 2709 2097 2709 1522 
Q 2709 1188 2573 903 
Q 2438 619 2231 419 
Q 2025 219 1772 97 
Q 1413 -75 1034 -75 
Q 653 -75 479 54 
Q 306 184 306 341 
Q 306 428 378 495 
Q 450 563 559 563 
Q 641 563 702 538 
Q 763 513 909 409 
Q 1144 247 1384 247 
Q 1750 247 2026 523 
Q 2303 800 2303 1197 
Q 2303 1581 2056 1914 
Q 1809 2247 1375 2428 
Q 1034 2569 447 2591 
L 1259 4238 
L 2778 4238 
z
" transform="scale(0.015625)"/>
       </defs>
       <use xlink:href="#TimesNewRomanPSMT-35"/>
      </g>
     </g>
    </g>
    <g id="xtick_3">
     <g id="line2d_5">
      <path d="M 227.086928 253.2175 
L 227.086928 31.92 
" clip-path="url(#p1528bfc5d0)" style="fill: none; stroke-dasharray: 2.96,1.28; stroke-dashoffset: 0; stroke: #b0b0b0; stroke-opacity: 0.3; stroke-width: 0.8"/>
     </g>
     <g id="line2d_6">
      <g>
       <use xlink:href="#m15dd79c6d4" x="227.086928" y="253.2175" style="stroke: #000000; stroke-width: 0.8"/>
      </g>
     </g>
     <g id="text_3">
      <!-- 10 -->
      <g transform="translate(221.586928 267.855625) scale(0.11 -0.11)">
       <defs>
        <path id="TimesNewRomanPSMT-31" d="M 750 3822 
L 1781 4325 
L 1884 4325 
L 1884 747 
Q 1884 391 1914 303 
Q 1944 216 2037 169 
Q 2131 122 2419 116 
L 2419 0 
L 825 0 
L 825 116 
Q 1125 122 1212 167 
Q 1300 213 1334 289 
Q 1369 366 1369 747 
L 1369 3034 
Q 1369 3497 1338 3628 
Q 1316 3728 1258 3775 
Q 1200 3822 1119 3822 
Q 1003 3822 797 3725 
L 750 3822 
z
" transform="scale(0.015625)"/>
       </defs>
       <use xlink:href="#TimesNewRomanPSMT-31"/>
       <use xlink:href="#TimesNewRomanPSMT-30" transform="translate(50 0)"/>
      </g>
     </g>
    </g>
    <g id="xtick_4">
     <g id="line2d_7">
      <path d="M 308.437368 253.2175 
L 308.437368 31.92 
" clip-path="url(#p1528bfc5d0)" style="fill: none; stroke-dasharray: 2.96,1.28; stroke-dashoffset: 0; stroke: #b0b0b0; stroke-opacity: 0.3; stroke-width: 0.8"/>
     </g>
     <g id="line2d_8">
      <g>
       <use xlink:href="#m15dd79c6d4" x="308.437368" y="253.2175" style="stroke: #000000; stroke-width: 0.8"/>
      </g>
     </g>
     <g id="text_4">
      <!-- 15 -->
      <g transform="translate(302.937368 267.855625) scale(0.11 -0.11)">
       <use xlink:href="#TimesNewRomanPSMT-31"/>
       <use xlink:href="#TimesNewRomanPSMT-35" transform="translate(50 0)"/>
      </g>
     </g>
    </g>
    <g id="xtick_5">
     <g id="line2d_9">
      <path d="M 389.787808 253.2175 
L 389.787808 31.92 
" clip-path="url(#p1528bfc5d0)" style="fill: none; stroke-dasharray: 2.96,1.28; stroke-dashoffset: 0; stroke: #b0b0b0; stroke-opacity: 0.3; stroke-width: 0.8"/>
     </g>
     <g id="line2d_10">
      <g>
       <use xlink:href="#m15dd79c6d4" x="389.787808" y="253.2175" style="stroke: #000000; stroke-width: 0.8"/>
      </g>
     </g>
     <g id="text_5">
      <!-- 20 -->
      <g transform="translate(384.287808 267.855625) scale(0.11 -0.11)">
       <defs>
        <path id="TimesNewRomanPSMT-32" d="M 2934 816 
L 2638 0 
L 138 0 
L 138 116 
Q 1241 1122 1691 1759 
Q 2141 2397 2141 2925 
Q 2141 3328 1894 3587 
Q 1647 3847 1303 3847 
Q 991 3847 742 3664 
Q 494 3481 375 3128 
L 259 3128 
Q 338 3706 661 4015 
Q 984 4325 1469 4325 
Q 1984 4325 2329 3994 
Q 2675 3663 2675 3213 
Q 2675 2891 2525 2569 
Q 2294 2063 1775 1497 
Q 997 647 803 472 
L 1909 472 
Q 2247 472 2383 497 
Q 2519 522 2628 598 
Q 2738 675 2819 816 
L 2934 816 
z
" transform="scale(0.015625)"/>
       </defs>
       <use xlink:href="#TimesNewRomanPSMT-32"/>
       <use xlink:href="#TimesNewRomanPSMT-30" transform="translate(50 0)"/>
      </g>
     </g>
    </g>
    <g id="xtick_6">
     <g id="line2d_11">
      <path d="M 471.138248 253.2175 
L 471.138248 31.92 
" clip-path="url(#p1528bfc5d0)" style="fill: none; stroke-dasharray: 2.96,1.28; stroke-dashoffset: 0; stroke: #b0b0b0; stroke-opacity: 0.3; stroke-width: 0.8"/>
     </g>
     <g id="line2d_12">
      <g>
       <use xlink:href="#m15dd79c6d4" x="471.138248" y="253.2175" style="stroke: #000000; stroke-width: 0.8"/>
      </g>
     </g>
     <g id="text_6">
      <!-- 25 -->
      <g transform="translate(465.638248 267.855625) scale(0.11 -0.11)">
       <use xlink:href="#TimesNewRomanPSMT-32"/>
       <use xlink:href="#TimesNewRomanPSMT-35" transform="translate(50 0)"/>
      </g>
     </g>
    </g>
    <g id="xtick_7">
     <g id="line2d_13">
      <path d="M 552.488688 253.2175 
L 552.488688 31.92 
" clip-path="url(#p1528bfc5d0)" style="fill: none; stroke-dasharray: 2.96,1.28; stroke-dashoffset: 0; stroke: #b0b0b0; stroke-opacity: 0.3; stroke-width: 0.8"/>
     </g>
     <g id="line2d_14">
      <g>
       <use xlink:href="#m15dd79c6d4" x="552.488688" y="253.2175" style="stroke: #000000; stroke-width: 0.8"/>
      </g>
     </g>
     <g id="text_7">
      <!-- 30 -->
      <g transform="translate(546.988688 267.855625) scale(0.11 -0.11)">
       <defs>
        <path id="TimesNewRomanPSMT-33" d="M 325 3431 
Q 506 3859 782 4092 
Q 1059 4325 1472 4325 
Q 1981 4325 2253 3994 
Q 2459 3747 2459 3466 
Q 2459 3003 1878 2509 
Q 2269 2356 2469 2072 
Q 2669 1788 2669 1403 
Q 2669 853 2319 450 
Q 1863 -75 997 -75 
Q 569 -75 414 31 
Q 259 138 259 259 
Q 259 350 332 419 
Q 406 488 509 488 
Q 588 488 669 463 
Q 722 447 909 348 
Q 1097 250 1169 231 
Q 1284 197 1416 197 
Q 1734 197 1970 444 
Q 2206 691 2206 1028 
Q 2206 1275 2097 1509 
Q 2016 1684 1919 1775 
Q 1784 1900 1550 2001 
Q 1316 2103 1072 2103 
L 972 2103 
L 972 2197 
Q 1219 2228 1467 2375 
Q 1716 2522 1828 2728 
Q 1941 2934 1941 3181 
Q 1941 3503 1739 3701 
Q 1538 3900 1238 3900 
Q 753 3900 428 3381 
L 325 3431 
z
" transform="scale(0.015625)"/>
       </defs>
       <use xlink:href="#TimesNewRomanPSMT-33"/>
       <use xlink:href="#TimesNewRomanPSMT-30" transform="translate(50 0)"/>
      </g>
     </g>
    </g>
    <g id="text_8">
     <!-- 分块数量 -->
     <g transform="translate(300.8425 285.536094) scale(0.16 -0.16)">
      <defs>
       <path id="SimSun-5206" d="M 2350 5050 
L 2850 4675 
L 2625 4550 
Q 2200 3750 1687 3125 
Q 1175 2500 375 2025 
L 325 2100 
Q 975 2625 1475 3337 
Q 1975 4050 2350 5050 
z
M 4100 4975 
L 3900 4850 
Q 4175 3850 4800 3300 
Q 5425 2750 6125 2625 
L 6125 2550 
Q 5750 2500 5600 2225 
Q 4775 2675 4287 3425 
Q 3800 4175 3625 5175 
L 4100 4975 
z
M 1375 2625 
L 4225 2625 
L 4475 2875 
L 4825 2525 
L 4625 2375 
Q 4575 400 4375 -12 
Q 4175 -425 3675 -600 
Q 3600 -200 2975 -25 
L 2975 75 
Q 3600 -25 3787 -12 
Q 3975 0 4075 275 
Q 4175 550 4275 2475 
L 2975 2475 
Q 2825 1400 2375 662 
Q 1925 -75 650 -625 
L 600 -525 
Q 1725 50 2112 837 
Q 2500 1625 2575 2475 
L 1800 2475 
L 1575 2425 
L 1375 2625 
z
" transform="scale(0.015625)"/>
       <path id="SimSun-5757" d="M 3825 3650 
Q 3825 2800 3775 2000 
L 4900 2000 
L 4900 3650 
L 3825 3650 
z
M 3475 3800 
Q 3475 4750 3450 5250 
L 4100 5000 
L 3825 4800 
L 3825 3800 
L 4850 3800 
L 5050 4075 
L 5475 3750 
L 5250 3550 
L 5250 2000 
L 5350 2000 
L 5675 2325 
L 6150 1850 
L 4050 1850 
Q 4325 1075 4850 550 
Q 5375 25 6125 -150 
L 6125 -250 
Q 5675 -275 5550 -575 
Q 4825 -50 4425 600 
Q 4025 1250 3925 1850 
L 3750 1850 
Q 3600 800 3000 275 
Q 2400 -250 1325 -625 
L 1250 -525 
Q 2225 -125 2750 425 
Q 3275 975 3400 1850 
L 2750 1850 
Q 2425 1850 2150 1775 
L 1925 2000 
L 3425 2000 
Q 3475 2725 3475 3650 
L 3200 3650 
Q 2875 3650 2600 3575 
L 2375 3800 
L 3475 3800 
z
M 1275 3300 
Q 1275 4725 1250 5175 
L 1875 4900 
L 1625 4700 
L 1625 3300 
L 1975 3300 
L 2275 3600 
L 2725 3150 
L 1625 3150 
L 1625 1100 
L 2725 1350 
L 2750 1250 
Q 1500 825 1050 625 
Q 600 425 550 300 
L 275 825 
Q 625 875 1275 1000 
L 1275 3150 
L 1075 3150 
Q 750 3150 475 3075 
L 250 3300 
L 1275 3300 
z
" transform="scale(0.015625)"/>
       <path id="SimSun-6570" d="M 1875 1525 
Q 1675 1200 1500 900 
Q 1825 825 2275 725 
Q 2500 975 2725 1525 
L 1875 1525 
z
M 850 4900 
Q 1325 4600 1425 4450 
Q 1525 4300 1525 4225 
Q 1525 4100 1437 3975 
Q 1350 3850 1300 3850 
Q 1225 3850 1150 4100 
Q 1050 4450 775 4850 
L 850 4900 
z
M 3000 4975 
L 3450 4675 
Q 3250 4625 3100 4425 
Q 2925 4225 2525 3825 
L 2450 3875 
Q 2925 4625 3000 4975 
z
M 1875 5250 
L 2425 5000 
L 2225 4825 
L 2225 3675 
L 2850 3675 
L 3125 3950 
L 3550 3525 
L 2225 3525 
L 2225 3300 
Q 2800 3175 2937 3062 
Q 3075 2950 3075 2775 
Q 3075 2700 3050 2587 
Q 3025 2475 2975 2475 
Q 2925 2475 2800 2650 
Q 2600 2925 2225 3175 
L 2225 2400 
L 1925 2200 
L 2275 2050 
Q 2150 2000 1950 1675 
L 2725 1675 
L 2900 1900 
L 3275 1575 
L 3050 1450 
Q 2800 875 2600 650 
Q 3000 550 3137 437 
Q 3275 325 3275 150 
Q 3275 -25 3200 -25 
Q 3125 -25 3025 75 
Q 2750 275 2400 425 
Q 1525 -275 325 -500 
L 300 -425 
Q 1450 -50 2100 550 
Q 1600 725 1125 800 
Q 1225 950 1525 1525 
L 1200 1525 
Q 875 1525 600 1450 
L 375 1675 
L 1575 1675 
Q 1675 1925 1775 2275 
L 1900 2225 
L 1900 3250 
Q 1225 2475 350 2050 
L 300 2125 
Q 1225 2775 1700 3525 
L 1250 3525 
Q 925 3525 650 3450 
L 425 3675 
L 1900 3675 
Q 1900 4575 1875 5250 
z
M 3925 3525 
Q 4050 2075 4525 1100 
Q 4925 1950 5025 3525 
L 3925 3525 
z
M 4050 5250 
L 4625 4925 
Q 4425 4850 4325 4625 
Q 4225 4400 3950 3675 
L 5375 3675 
L 5675 3975 
L 6125 3525 
L 5400 3525 
Q 5250 1675 4750 775 
Q 5325 75 6100 -100 
L 6100 -200 
Q 5625 -275 5600 -500 
Q 4950 -50 4525 525 
Q 3700 -275 2550 -650 
L 2500 -575 
Q 3650 -50 4325 800 
Q 3850 1975 3825 3375 
Q 3575 2725 3100 2150 
L 3025 2200 
Q 3625 3200 4050 5250 
z
" transform="scale(0.015625)"/>
       <path id="SimSun-91cf" d="M 1700 2400 
L 1700 1875 
L 3025 1875 
L 3025 2400 
L 1700 2400 
z
M 3350 2400 
L 3350 1875 
L 4625 1875 
L 4625 2400 
L 3350 2400 
z
M 1700 1725 
L 1700 1225 
L 3025 1225 
L 3025 1725 
L 1700 1725 
z
M 3350 1725 
L 3350 1225 
L 4625 1225 
L 4625 1725 
L 3350 1725 
z
M 4950 2325 
Q 4950 1350 4975 1025 
L 4625 875 
L 4625 1075 
L 3350 1075 
L 3350 525 
L 4700 525 
L 5050 825 
L 5450 375 
L 3350 375 
L 3350 -225 
L 5275 -225 
L 5650 125 
L 6075 -375 
L 1175 -375 
Q 850 -375 575 -450 
L 350 -225 
L 3025 -225 
L 3025 375 
L 1725 375 
Q 1400 375 1125 300 
L 900 525 
L 3025 525 
L 3025 1075 
L 1700 1075 
L 1700 925 
L 1350 800 
Q 1375 1300 1375 1787 
Q 1375 2275 1350 2750 
L 1700 2550 
L 4600 2550 
L 4750 2750 
L 5125 2475 
L 4950 2325 
z
M 1775 4800 
L 1775 4375 
L 4550 4375 
L 4550 4800 
L 1775 4800 
z
M 1775 4225 
L 1775 3775 
L 4550 3775 
L 4550 4225 
L 1775 4225 
z
M 4875 4750 
Q 4875 3825 4900 3525 
L 4550 3375 
L 4550 3625 
L 1775 3625 
L 1775 3400 
L 1425 3250 
Q 1450 3650 1450 4262 
Q 1450 4875 1425 5125 
L 1800 4950 
L 4500 4950 
L 4650 5175 
L 5050 4900 
L 4875 4750 
z
M 250 3125 
L 5375 3125 
L 5725 3450 
L 6150 2975 
L 950 2975 
Q 750 2975 475 2900 
L 250 3125 
z
" transform="scale(0.015625)"/>
      </defs>
      <use xlink:href="#SimSun-5206"/>
      <use xlink:href="#SimSun-5757" transform="translate(100 0)"/>
      <use xlink:href="#SimSun-6570" transform="translate(200 0)"/>
      <use xlink:href="#SimSun-91cf" transform="translate(300 0)"/>
     </g>
    </g>
   </g>
   <g id="matplotlib.axis_2">
    <g id="ytick_1">
     <g id="line2d_15">
      <path d="M 55.4375 240.429032 
L 610.2475 240.429032 
" clip-path="url(#p1528bfc5d0)" style="fill: none; stroke-dasharray: 2.96,1.28; stroke-dashoffset: 0; stroke: #b0b0b0; stroke-opacity: 0.3; stroke-width: 0.8"/>
     </g>
     <g id="line2d_16">
      <defs>
       <path id="me723c32cae" d="M 0 0 
L -3.5 0 
" style="stroke: #000000; stroke-width: 0.8"/>
      </defs>
      <g>
       <use xlink:href="#me723c32cae" x="55.4375" y="240.429032" style="stroke: #000000; stroke-width: 0.8"/>
      </g>
     </g>
     <g id="text_9">
      <!-- 60 -->
      <g style="fill: #5b8ff9" transform="translate(37.4375 244.248094) scale(0.11 -0.11)">
       <defs>
        <path id="TimesNewRomanPSMT-36" d="M 2869 4325 
L 2869 4209 
Q 2456 4169 2195 4045 
Q 1934 3922 1679 3669 
Q 1425 3416 1258 3105 
Q 1091 2794 978 2366 
Q 1428 2675 1881 2675 
Q 2316 2675 2634 2325 
Q 2953 1975 2953 1425 
Q 2953 894 2631 456 
Q 2244 -75 1606 -75 
Q 1172 -75 869 213 
Q 275 772 275 1663 
Q 275 2231 503 2743 
Q 731 3256 1154 3653 
Q 1578 4050 1965 4187 
Q 2353 4325 2688 4325 
L 2869 4325 
z
M 925 2138 
Q 869 1716 869 1456 
Q 869 1156 980 804 
Q 1091 453 1309 247 
Q 1469 100 1697 100 
Q 1969 100 2183 356 
Q 2397 613 2397 1088 
Q 2397 1622 2184 2012 
Q 1972 2403 1581 2403 
Q 1463 2403 1327 2353 
Q 1191 2303 925 2138 
z
" transform="scale(0.015625)"/>
       </defs>
       <use xlink:href="#TimesNewRomanPSMT-36"/>
       <use xlink:href="#TimesNewRomanPSMT-30" transform="translate(50 0)"/>
      </g>
     </g>
    </g>
    <g id="ytick_2">
     <g id="line2d_17">
      <path d="M 55.4375 208.317372 
L 610.2475 208.317372 
" clip-path="url(#p1528bfc5d0)" style="fill: none; stroke-dasharray: 2.96,1.28; stroke-dashoffset: 0; stroke: #b0b0b0; stroke-opacity: 0.3; stroke-width: 0.8"/>
     </g>
     <g id="line2d_18">
      <g>
       <use xlink:href="#me723c32cae" x="55.4375" y="208.317372" style="stroke: #000000; stroke-width: 0.8"/>
      </g>
     </g>
     <g id="text_10">
      <!-- 80 -->
      <g style="fill: #5b8ff9" transform="translate(37.4375 212.136435) scale(0.11 -0.11)">
       <defs>
        <path id="TimesNewRomanPSMT-38" d="M 1228 2134 
Q 725 2547 579 2797 
Q 434 3047 434 3316 
Q 434 3728 753 4026 
Q 1072 4325 1600 4325 
Q 2113 4325 2425 4047 
Q 2738 3769 2738 3413 
Q 2738 3175 2569 2928 
Q 2400 2681 1866 2347 
Q 2416 1922 2594 1678 
Q 2831 1359 2831 1006 
Q 2831 559 2490 242 
Q 2150 -75 1597 -75 
Q 994 -75 656 303 
Q 388 606 388 966 
Q 388 1247 577 1523 
Q 766 1800 1228 2134 
z
M 1719 2469 
Q 2094 2806 2194 3001 
Q 2294 3197 2294 3444 
Q 2294 3772 2109 3958 
Q 1925 4144 1606 4144 
Q 1288 4144 1088 3959 
Q 888 3775 888 3528 
Q 888 3366 970 3203 
Q 1053 3041 1206 2894 
L 1719 2469 
z
M 1375 2016 
Q 1116 1797 991 1539 
Q 866 1281 866 981 
Q 866 578 1086 336 
Q 1306 94 1647 94 
Q 1984 94 2187 284 
Q 2391 475 2391 747 
Q 2391 972 2272 1150 
Q 2050 1481 1375 2016 
z
" transform="scale(0.015625)"/>
       </defs>
       <use xlink:href="#TimesNewRomanPSMT-38"/>
       <use xlink:href="#TimesNewRomanPSMT-30" transform="translate(50 0)"/>
      </g>
     </g>
    </g>
    <g id="ytick_3">
     <g id="line2d_19">
      <path d="M 55.4375 176.205713 
L 610.2475 176.205713 
" clip-path="url(#p1528bfc5d0)" style="fill: none; stroke-dasharray: 2.96,1.28; stroke-dashoffset: 0; stroke: #b0b0b0; stroke-opacity: 0.3; stroke-width: 0.8"/>
     </g>
     <g id="line2d_20">
      <g>
       <use xlink:href="#me723c32cae" x="55.4375" y="176.205713" style="stroke: #000000; stroke-width: 0.8"/>
      </g>
     </g>
     <g id="text_11">
      <!-- 100 -->
      <g style="fill: #5b8ff9" transform="translate(31.9375 180.024776) scale(0.11 -0.11)">
       <use xlink:href="#TimesNewRomanPSMT-31"/>
       <use xlink:href="#TimesNewRomanPSMT-30" transform="translate(50 0)"/>
       <use xlink:href="#TimesNewRomanPSMT-30" transform="translate(100 0)"/>
      </g>
     </g>
    </g>
    <g id="ytick_4">
     <g id="line2d_21">
      <path d="M 55.4375 144.094054 
L 610.2475 144.094054 
" clip-path="url(#p1528bfc5d0)" style="fill: none; stroke-dasharray: 2.96,1.28; stroke-dashoffset: 0; stroke: #b0b0b0; stroke-opacity: 0.3; stroke-width: 0.8"/>
     </g>
     <g id="line2d_22">
      <g>
       <use xlink:href="#me723c32cae" x="55.4375" y="144.094054" style="stroke: #000000; stroke-width: 0.8"/>
      </g>
     </g>
     <g id="text_12">
      <!-- 120 -->
      <g style="fill: #5b8ff9" transform="translate(31.9375 147.913116) scale(0.11 -0.11)">
       <use xlink:href="#TimesNewRomanPSMT-31"/>
       <use xlink:href="#TimesNewRomanPSMT-32" transform="translate(50 0)"/>
       <use xlink:href="#TimesNewRomanPSMT-30" transform="translate(100 0)"/>
      </g>
     </g>
    </g>
    <g id="ytick_5">
     <g id="line2d_23">
      <path d="M 55.4375 111.982395 
L 610.2475 111.982395 
" clip-path="url(#p1528bfc5d0)" style="fill: none; stroke-dasharray: 2.96,1.28; stroke-dashoffset: 0; stroke: #b0b0b0; stroke-opacity: 0.3; stroke-width: 0.8"/>
     </g>
     <g id="line2d_24">
      <g>
       <use xlink:href="#me723c32cae" x="55.4375" y="111.982395" style="stroke: #000000; stroke-width: 0.8"/>
      </g>
     </g>
     <g id="text_13">
      <!-- 140 -->
      <g style="fill: #5b8ff9" transform="translate(31.9375 115.801457) scale(0.11 -0.11)">
       <defs>
        <path id="TimesNewRomanPSMT-34" d="M 2978 1563 
L 2978 1119 
L 2409 1119 
L 2409 0 
L 1894 0 
L 1894 1119 
L 100 1119 
L 100 1519 
L 2066 4325 
L 2409 4325 
L 2409 1563 
L 2978 1563 
z
M 1894 1563 
L 1894 3666 
L 406 1563 
L 1894 1563 
z
" transform="scale(0.015625)"/>
       </defs>
       <use xlink:href="#TimesNewRomanPSMT-31"/>
       <use xlink:href="#TimesNewRomanPSMT-34" transform="translate(50 0)"/>
       <use xlink:href="#TimesNewRomanPSMT-30" transform="translate(100 0)"/>
      </g>
     </g>
    </g>
    <g id="ytick_6">
     <g id="line2d_25">
      <path d="M 55.4375 79.870735 
L 610.2475 79.870735 
" clip-path="url(#p1528bfc5d0)" style="fill: none; stroke-dasharray: 2.96,1.28; stroke-dashoffset: 0; stroke: #b0b0b0; stroke-opacity: 0.3; stroke-width: 0.8"/>
     </g>
     <g id="line2d_26">
      <g>
       <use xlink:href="#me723c32cae" x="55.4375" y="79.870735" style="stroke: #000000; stroke-width: 0.8"/>
      </g>
     </g>
     <g id="text_14">
      <!-- 160 -->
      <g style="fill: #5b8ff9" transform="translate(31.9375 83.689798) scale(0.11 -0.11)">
       <use xlink:href="#TimesNewRomanPSMT-31"/>
       <use xlink:href="#TimesNewRomanPSMT-36" transform="translate(50 0)"/>
       <use xlink:href="#TimesNewRomanPSMT-30" transform="translate(100 0)"/>
      </g>
     </g>
    </g>
    <g id="ytick_7">
     <g id="line2d_27">
      <path d="M 55.4375 47.759076 
L 610.2475 47.759076 
" clip-path="url(#p1528bfc5d0)" style="fill: none; stroke-dasharray: 2.96,1.28; stroke-dashoffset: 0; stroke: #b0b0b0; stroke-opacity: 0.3; stroke-width: 0.8"/>
     </g>
     <g id="line2d_28">
      <g>
       <use xlink:href="#me723c32cae" x="55.4375" y="47.759076" style="stroke: #000000; stroke-width: 0.8"/>
      </g>
     </g>
     <g id="text_15">
      <!-- 180 -->
      <g style="fill: #5b8ff9" transform="translate(31.9375 51.578138) scale(0.11 -0.11)">
       <use xlink:href="#TimesNewRomanPSMT-31"/>
       <use xlink:href="#TimesNewRomanPSMT-38" transform="translate(50 0)"/>
       <use xlink:href="#TimesNewRomanPSMT-30" transform="translate(100 0)"/>
      </g>
     </g>
    </g>
    <g id="text_16">
     <!-- 通信时间（ms） -->
     <g style="fill: #5b8ff9" transform="translate(24.515 199.905) rotate(-90) scale(0.16 -0.16)">
      <defs>
       <path id="SimSun-901a" d="M 2625 3575 
L 2625 2825 
L 3725 2825 
L 3725 3575 
L 2625 3575 
z
M 4050 3575 
L 4050 2825 
L 5225 2825 
L 5225 3575 
L 4050 3575 
z
M 2625 2675 
L 2625 1925 
L 3725 1925 
L 3725 2675 
L 2625 2675 
z
M 4050 2675 
L 4050 1925 
L 5225 1925 
L 5225 2675 
L 4050 2675 
z
M 4425 825 
Q 4825 800 5025 800 
Q 5225 800 5225 1000 
L 5225 1775 
L 4050 1775 
L 4050 650 
L 3725 500 
L 3725 1775 
L 2625 1775 
L 2625 575 
L 2275 425 
Q 2300 1100 2300 2250 
Q 2300 3400 2275 3975 
L 2700 3725 
L 3775 3725 
Q 3725 4125 3200 4425 
L 3250 4500 
Q 3675 4425 4075 4175 
L 4825 4775 
L 3150 4775 
Q 2800 4775 2525 4700 
L 2300 4925 
L 4850 4925 
L 5075 5150 
L 5525 4675 
Q 5125 4700 4150 4100 
Q 4175 4050 4175 3950 
Q 4175 3825 4050 3725 
L 5175 3725 
L 5350 3975 
L 5725 3700 
L 5550 3525 
L 5550 875 
Q 5575 450 5075 275 
Q 5050 625 4425 725 
L 4425 825 
z
M 725 4875 
L 775 4925 
Q 1125 4750 1337 4575 
Q 1550 4400 1550 4225 
Q 1550 4050 1450 3937 
Q 1350 3825 1300 3825 
Q 1200 3825 1150 4050 
Q 1075 4375 725 4875 
z
M 1575 800 
Q 1825 500 2237 287 
Q 2650 75 3725 37 
Q 4800 0 6150 150 
L 6150 50 
Q 5650 -75 5675 -400 
Q 4500 -400 3762 -350 
Q 3025 -300 2562 -137 
Q 2100 25 1825 325 
Q 1525 625 1400 612 
Q 1275 600 1012 312 
Q 750 25 625 -225 
L 250 100 
Q 625 475 1250 750 
L 1250 2850 
L 1075 2850 
Q 750 2850 475 2775 
L 250 3000 
L 1225 3000 
L 1375 3250 
L 1775 2950 
L 1575 2775 
L 1575 800 
z
" transform="scale(0.015625)"/>
       <path id="SimSun-4fe1" d="M 3425 5125 
L 3500 5200 
Q 4000 4900 4125 4737 
Q 4250 4575 4250 4500 
Q 4250 4350 4050 4150 
L 5200 4150 
L 5500 4450 
L 5950 4000 
L 2850 4000 
Q 2525 4000 2250 3925 
L 2025 4150 
L 3850 4150 
Q 3850 4625 3425 5125 
z
M 3000 1300 
L 3000 150 
L 5050 150 
L 5050 1300 
L 3000 1300 
z
M 2475 3250 
L 4875 3250 
L 5175 3550 
L 5625 3100 
L 3225 3100 
Q 2975 3100 2700 3025 
L 2475 3250 
z
M 2425 2325 
L 4900 2325 
L 5200 2625 
L 5650 2175 
L 3250 2175 
Q 2925 2175 2650 2100 
L 2425 2325 
z
M 2650 1675 
L 3000 1450 
L 5000 1450 
L 5225 1700 
L 5575 1400 
L 5375 1250 
L 5375 50 
Q 5375 -200 5400 -325 
L 5050 -475 
L 5050 0 
L 3000 0 
L 3000 -350 
L 2650 -500 
Q 2675 -100 2675 500 
Q 2675 1100 2650 1675 
z
M 1550 3150 
L 1550 -525 
L 1200 -650 
Q 1225 -150 1225 200 
L 1225 3025 
Q 750 2325 300 1900 
L 250 1975 
Q 900 2875 1300 3862 
Q 1700 4850 1775 5225 
L 2275 4925 
L 2075 4800 
Q 1675 3925 1450 3475 
L 1750 3300 
L 1550 3150 
z
" transform="scale(0.015625)"/>
       <path id="SimSun-65f6" d="M 4500 3600 
Q 4500 4575 4475 5225 
L 5100 4900 
L 4850 4725 
L 4850 3600 
L 5225 3600 
L 5550 3925 
L 6025 3450 
L 4850 3450 
L 4850 100 
Q 4850 -375 4300 -575 
Q 4275 -200 3475 -25 
L 3475 100 
Q 4150 0 4325 25 
Q 4500 50 4500 325 
L 4500 3450 
L 3200 3450 
Q 2875 3450 2600 3375 
L 2375 3600 
L 4500 3600 
z
M 2875 2825 
Q 3525 2375 3637 2200 
Q 3750 2025 3750 1925 
Q 3750 1800 3637 1637 
Q 3525 1475 3475 1475 
Q 3400 1475 3325 1775 
Q 3200 2225 2800 2750 
L 2875 2825 
z
M 925 4150 
L 925 2650 
L 1950 2650 
L 1950 4150 
L 925 4150 
z
M 925 2500 
L 925 900 
L 1950 900 
L 1950 2500 
L 925 2500 
z
M 2300 2000 
Q 2300 800 2325 450 
L 1950 250 
L 1950 750 
L 925 750 
L 925 225 
L 550 25 
Q 575 825 575 2425 
Q 575 4025 550 4500 
L 950 4300 
L 1900 4300 
L 2100 4550 
L 2500 4225 
L 2300 4050 
L 2300 2000 
z
" transform="scale(0.015625)"/>
       <path id="SimSun-95f4" d="M 2150 525 
Q 2175 1325 2175 2112 
Q 2175 2900 2150 3675 
L 2525 3450 
L 3750 3450 
L 4000 3700 
L 4325 3375 
L 4125 3200 
Q 4125 1550 4150 775 
L 3800 575 
L 3800 975 
L 2500 975 
L 2500 700 
L 2150 525 
z
M 2500 3300 
L 2500 2325 
L 3800 2325 
L 3800 3300 
L 2500 3300 
z
M 2500 2175 
L 2500 1125 
L 3800 1125 
L 3800 2175 
L 2500 2175 
z
M 1275 5200 
Q 1850 4825 1950 4675 
Q 2050 4525 2050 4425 
Q 2050 4275 1950 4137 
Q 1850 4000 1825 4000 
Q 1750 4000 1675 4275 
Q 1550 4650 1200 5125 
L 1275 5200 
z
M 1125 425 
Q 1125 25 1150 -375 
L 750 -525 
Q 775 -150 775 1950 
Q 775 4050 750 4425 
L 1350 4125 
L 1125 3975 
L 1125 425 
z
M 4225 125 
Q 5025 0 5125 37 
Q 5225 75 5225 250 
L 5225 4450 
L 3225 4450 
Q 2900 4450 2625 4375 
L 2400 4600 
L 5175 4600 
L 5425 4850 
L 5775 4500 
L 5575 4350 
L 5575 225 
Q 5575 -100 5462 -250 
Q 5350 -400 5000 -550 
Q 4800 -125 4225 25 
L 4225 125 
z
" transform="scale(0.015625)"/>
       <path id="SimSun-ff08" d="M 5087 200 
Q 5475 -100 5425 -150 
Q 5375 -200 4950 87 
Q 4525 375 4137 850 
Q 3750 1325 3687 2100 
Q 3625 2875 4000 3487 
Q 4375 4100 4887 4462 
Q 5400 4825 5412 4762 
Q 5425 4700 5075 4425 
Q 4725 4125 4387 3600 
Q 4050 3075 4050 2250 
Q 4050 1425 4375 962 
Q 4700 500 5087 200 
z
" transform="scale(0.015625)"/>
       <path id="TimesNewRomanPSMT-6d" d="M 1050 2338 
Q 1363 2650 1419 2697 
Q 1559 2816 1721 2881 
Q 1884 2947 2044 2947 
Q 2313 2947 2506 2790 
Q 2700 2634 2766 2338 
Q 3088 2713 3309 2830 
Q 3531 2947 3766 2947 
Q 3994 2947 4170 2830 
Q 4347 2713 4450 2447 
Q 4519 2266 4519 1878 
L 4519 647 
Q 4519 378 4559 278 
Q 4591 209 4675 161 
Q 4759 113 4950 113 
L 4950 0 
L 3538 0 
L 3538 113 
L 3597 113 
Q 3781 113 3884 184 
Q 3956 234 3988 344 
Q 4000 397 4000 647 
L 4000 1878 
Q 4000 2228 3916 2372 
Q 3794 2572 3525 2572 
Q 3359 2572 3192 2489 
Q 3025 2406 2788 2181 
L 2781 2147 
L 2788 2013 
L 2788 647 
Q 2788 353 2820 281 
Q 2853 209 2943 161 
Q 3034 113 3253 113 
L 3253 0 
L 1806 0 
L 1806 113 
Q 2044 113 2133 169 
Q 2222 225 2256 338 
Q 2272 391 2272 647 
L 2272 1878 
Q 2272 2228 2169 2381 
Q 2031 2581 1784 2581 
Q 1616 2581 1450 2491 
Q 1191 2353 1050 2181 
L 1050 647 
Q 1050 366 1089 281 
Q 1128 197 1204 155 
Q 1281 113 1516 113 
L 1516 0 
L 100 0 
L 100 113 
Q 297 113 375 155 
Q 453 197 493 289 
Q 534 381 534 647 
L 534 1741 
Q 534 2213 506 2350 
Q 484 2453 437 2492 
Q 391 2531 309 2531 
Q 222 2531 100 2484 
L 53 2597 
L 916 2947 
L 1050 2947 
L 1050 2338 
z
" transform="scale(0.015625)"/>
       <path id="TimesNewRomanPSMT-73" d="M 2050 2947 
L 2050 1972 
L 1947 1972 
Q 1828 2431 1642 2597 
Q 1456 2763 1169 2763 
Q 950 2763 815 2647 
Q 681 2531 681 2391 
Q 681 2216 781 2091 
Q 878 1963 1175 1819 
L 1631 1597 
Q 2266 1288 2266 781 
Q 2266 391 1970 151 
Q 1675 -88 1309 -88 
Q 1047 -88 709 6 
Q 606 38 541 38 
Q 469 38 428 -44 
L 325 -44 
L 325 978 
L 428 978 
Q 516 541 762 319 
Q 1009 97 1316 97 
Q 1531 97 1667 223 
Q 1803 350 1803 528 
Q 1803 744 1651 891 
Q 1500 1038 1047 1263 
Q 594 1488 453 1669 
Q 313 1847 313 2119 
Q 313 2472 555 2709 
Q 797 2947 1181 2947 
Q 1350 2947 1591 2875 
Q 1750 2828 1803 2828 
Q 1853 2828 1881 2850 
Q 1909 2872 1947 2947 
L 2050 2947 
z
" transform="scale(0.015625)"/>
       <path id="SimSun-ff09" d="M 2337 875 
Q 1925 350 1437 62 
Q 950 -225 937 -162 
Q 925 -100 1300 175 
Q 1650 425 2037 1012 
Q 2425 1600 2375 2375 
Q 2325 3150 1987 3662 
Q 1650 4175 1300 4475 
Q 925 4775 937 4837 
Q 950 4900 1412 4587 
Q 1875 4275 2325 3662 
Q 2775 3050 2762 2225 
Q 2750 1400 2337 875 
z
" transform="scale(0.015625)"/>
      </defs>
      <use xlink:href="#SimSun-901a"/>
      <use xlink:href="#SimSun-4fe1" transform="translate(100 0)"/>
      <use xlink:href="#SimSun-65f6" transform="translate(200 0)"/>
      <use xlink:href="#SimSun-95f4" transform="translate(300 0)"/>
      <use xlink:href="#SimSun-ff08" transform="translate(400 0)"/>
      <use xlink:href="#TimesNewRomanPSMT-6d" transform="translate(500 0)"/>
      <use xlink:href="#TimesNewRomanPSMT-73" transform="translate(577.783203 0)"/>
      <use xlink:href="#SimSun-ff09" transform="translate(616.699219 0)"/>
     </g>
    </g>
   </g>
   <g id="line2d_29">
    <path d="M 80.656136 180.540787 
L 96.926224 218.432545 
L 129.4664 243.158523 
L 194.546752 237.860099 
L 259.627104 222.767619 
L 324.707456 197.23885 
L 454.86816 116.799143 
L 585.028864 41.978977 
" clip-path="url(#p1528bfc5d0)" style="fill: none; stroke: #5b8ff9; stroke-width: 2.2; stroke-linecap: square"/>
    <defs>
     <path id="m906a919647" d="M 0 3 
C 0.795609 3 1.55874 2.683901 2.12132 2.12132 
C 2.683901 1.55874 3 0.795609 3 0 
C 3 -0.795609 2.683901 -1.55874 2.12132 -2.12132 
C 1.55874 -2.683901 0.795609 -3 0 -3 
C -0.795609 -3 -1.55874 -2.683901 -2.12132 -2.12132 
C -2.683901 -1.55874 -3 -0.795609 -3 0 
C -3 0.795609 -2.683901 1.55874 -2.12132 2.12132 
C -1.55874 2.683901 -0.795609 3 0 3 
z
" style="stroke: #5b8ff9"/>
    </defs>
    <g clip-path="url(#p1528bfc5d0)">
     <use xlink:href="#m906a919647" x="80.656136" y="180.540787" style="fill: #5b8ff9; stroke: #5b8ff9"/>
     <use xlink:href="#m906a919647" x="96.926224" y="218.432545" style="fill: #5b8ff9; stroke: #5b8ff9"/>
     <use xlink:href="#m906a919647" x="129.4664" y="243.158523" style="fill: #5b8ff9; stroke: #5b8ff9"/>
     <use xlink:href="#m906a919647" x="194.546752" y="237.860099" style="fill: #5b8ff9; stroke: #5b8ff9"/>
     <use xlink:href="#m906a919647" x="259.627104" y="222.767619" style="fill: #5b8ff9; stroke: #5b8ff9"/>
     <use xlink:href="#m906a919647" x="324.707456" y="197.23885" style="fill: #5b8ff9; stroke: #5b8ff9"/>
     <use xlink:href="#m906a919647" x="454.86816" y="116.799143" style="fill: #5b8ff9; stroke: #5b8ff9"/>
     <use xlink:href="#m906a919647" x="585.028864" y="41.978977" style="fill: #5b8ff9; stroke: #5b8ff9"/>
    </g>
   </g>
   <g id="patch_3">
    <path d="M 55.4375 253.2175 
L 55.4375 31.92 
" style="fill: none; stroke: #000000; stroke-width: 0.8; stroke-linejoin: miter; stroke-linecap: square"/>
   </g>
   <g id="patch_4">
    <path d="M 610.2475 253.2175 
L 610.2475 31.92 
" style="fill: none; stroke: #000000; stroke-width: 0.8; stroke-linejoin: miter; stroke-linecap: square"/>
   </g>
   <g id="patch_5">
    <path d="M 55.4375 253.2175 
L 610.2475 253.2175 
" style="fill: none; stroke: #000000; stroke-width: 0.8; stroke-linejoin: miter; stroke-linecap: square"/>
   </g>
   <g id="patch_6">
    <path d="M 55.4375 31.92 
L 610.2475 31.92 
" style="fill: none; stroke: #000000; stroke-width: 0.8; stroke-linejoin: miter; stroke-linecap: square"/>
   </g>
   <g id="text_17">
    <!-- 管线式分层全归约的分块敏感性 -->
    <g transform="translate(206.8425 25.92) scale(0.18 -0.18)">
     <defs>
      <path id="SimSun-7ba1" d="M 5125 2500 
L 5400 3075 
L 1025 3075 
Q 1000 2675 925 2562 
Q 850 2450 762 2425 
Q 675 2400 625 2400 
Q 550 2400 475 2450 
Q 400 2500 400 2550 
L 450 2625 
Q 500 2700 625 2825 
Q 725 2925 800 3100 
Q 875 3275 925 3475 
L 1025 3475 
L 1025 3225 
L 3100 3225 
Q 3075 3400 3000 3575 
Q 2925 3750 2775 3950 
L 2800 4000 
Q 3425 3725 3425 3525 
Q 3425 3325 3275 3225 
L 5350 3225 
L 5600 3525 
L 6050 3025 
Q 5775 2950 5650 2862 
Q 5525 2775 5200 2450 
L 5125 2500 
z
M 4775 625 
Q 4775 350 4775 62 
Q 4775 -225 4800 -425 
L 4450 -550 
L 4450 -225 
L 1950 -225 
L 1950 -550 
L 1600 -650 
Q 1625 200 1625 1300 
Q 1625 2400 1600 2750 
L 1950 2550 
L 4175 2550 
L 4425 2800 
L 4750 2475 
L 4550 2325 
L 4550 1825 
Q 4550 1600 4575 1400 
L 4225 1275 
L 4225 1550 
L 1950 1550 
L 1950 850 
L 4400 850 
L 4650 1100 
L 4975 775 
L 4775 625 
z
M 1950 2400 
L 1950 1700 
L 4225 1700 
L 4225 2400 
L 1950 2400 
z
M 1950 700 
L 1950 -75 
L 4450 -75 
L 4450 700 
L 1950 700 
z
M 1475 5275 
L 1950 4950 
L 1725 4825 
L 1475 4475 
L 2625 4475 
L 2875 4725 
L 3250 4325 
L 1875 4325 
Q 2150 4125 2225 4000 
Q 2300 3875 2300 3775 
Q 2300 3700 2262 3625 
Q 2225 3550 2125 3512 
Q 2025 3475 1987 3625 
Q 1950 3775 1900 4000 
Q 1850 4225 1750 4325 
L 1375 4325 
Q 1050 3925 500 3475 
L 450 3550 
Q 800 3925 1062 4375 
Q 1325 4825 1475 5275 
z
M 3925 5250 
L 4375 4925 
L 4150 4800 
L 3900 4475 
L 5250 4475 
L 5525 4750 
L 5925 4325 
L 4375 4325 
Q 4700 4125 4825 3975 
Q 4950 3825 4912 3700 
Q 4875 3575 4762 3500 
Q 4650 3425 4575 3700 
Q 4500 3950 4425 4075 
Q 4350 4200 4250 4325 
L 3800 4325 
Q 3525 4100 3275 3900 
L 3200 3950 
Q 3525 4350 3687 4675 
Q 3850 5000 3925 5250 
z
" transform="scale(0.015625)"/>
      <path id="SimSun-7ebf" d="M 3900 3400 
Q 3900 3050 3950 2475 
L 5125 2600 
L 5450 2975 
L 5950 2550 
L 3975 2350 
Q 4050 1575 4225 1125 
Q 4775 1625 5100 2175 
L 5550 1725 
L 5325 1700 
Q 4850 1250 4375 800 
Q 4825 175 5425 -75 
L 5775 1125 
L 5875 1100 
Q 5825 525 5812 150 
Q 5800 -225 5925 -450 
Q 5950 -500 5950 -525 
Q 5950 -625 5687 -587 
Q 5425 -550 4987 -287 
Q 4550 -25 4100 550 
Q 3650 250 3187 50 
Q 2725 -150 2025 -350 
L 2000 -250 
Q 3075 150 3925 850 
Q 3700 1525 3625 2300 
L 2600 2175 
L 2400 2075 
L 2125 2275 
L 3600 2425 
Q 3575 2775 3550 3375 
L 2825 3325 
L 2675 3225 
L 2450 3425 
L 3550 3500 
Q 3525 4375 3500 5250 
L 4075 4975 
L 3875 4800 
Q 3875 4275 3900 3525 
L 4975 3625 
L 5300 4000 
L 5800 3550 
L 3900 3400 
z
M 4275 4825 
L 4300 4900 
Q 5075 4700 5150 4562 
Q 5225 4425 5225 4325 
Q 5225 4200 5175 4075 
Q 5125 3950 5075 3950 
Q 5025 3950 4925 4150 
Q 4750 4425 4275 4825 
z
M 1525 5150 
L 2025 4825 
Q 1825 4750 1600 4325 
Q 1375 3875 775 3050 
L 1800 3150 
Q 2100 3650 2275 4150 
L 2725 3825 
Q 2550 3725 2125 3100 
Q 1700 2475 1025 1600 
Q 1375 1650 2575 1875 
L 2575 1775 
Q 1900 1600 1525 1462 
Q 1150 1325 775 1075 
L 475 1600 
Q 750 1675 1112 2137 
Q 1475 2600 1750 3050 
Q 1475 3000 1175 2912 
Q 875 2825 625 2600 
L 350 3075 
Q 625 3125 987 3787 
Q 1350 4450 1525 5150 
z
M 325 375 
Q 1025 475 1450 550 
Q 1875 625 2825 825 
L 2850 725 
Q 1725 400 1212 212 
Q 700 25 575 -100 
L 325 375 
z
" transform="scale(0.015625)"/>
      <path id="SimSun-5f0f" d="M 2200 575 
L 3650 900 
L 3675 800 
Q 2150 325 1487 87 
Q 825 -150 725 -300 
L 375 175 
Q 1175 325 1850 475 
L 1850 2400 
L 1425 2400 
Q 1100 2400 825 2325 
L 600 2550 
L 2625 2550 
L 2950 2875 
L 3425 2400 
L 2200 2400 
L 2200 575 
z
M 4425 4975 
Q 4900 4800 5112 4662 
Q 5325 4525 5312 4350 
Q 5300 4175 5225 4100 
Q 5150 4025 5100 4025 
Q 5000 4025 4925 4225 
Q 4775 4525 4375 4900 
L 4425 4975 
z
M 3875 4775 
Q 3875 4200 3900 3775 
L 5050 3775 
L 5450 4175 
L 6000 3625 
L 3900 3625 
Q 4000 2350 4237 1662 
Q 4475 975 4787 600 
Q 5100 225 5600 25 
Q 5675 525 5775 1225 
L 5900 1225 
Q 5875 250 5937 -62 
Q 6000 -375 6100 -525 
Q 6150 -600 6050 -600 
Q 5950 -600 5487 -437 
Q 5025 -275 4600 187 
Q 4175 650 3900 1475 
Q 3625 2300 3550 3625 
L 1350 3625 
Q 1025 3625 750 3550 
L 525 3775 
L 3525 3775 
Q 3500 4500 3475 5225 
L 4100 4950 
L 3875 4775 
z
" transform="scale(0.015625)"/>
      <path id="SimSun-5c42" d="M 2075 2775 
L 4775 2775 
L 5075 3075 
L 5525 2625 
L 2900 2625 
Q 2525 2625 2300 2550 
L 2075 2775 
z
M 4350 850 
Q 4825 575 5162 300 
Q 5500 25 5525 -175 
Q 5550 -375 5450 -487 
Q 5350 -600 5325 -600 
Q 5250 -600 5225 -525 
Q 5125 -350 4975 -75 
Q 3800 -175 3087 -275 
Q 2375 -375 2150 -525 
L 1900 -50 
Q 2225 -25 2700 575 
Q 3175 1175 3350 1625 
L 2400 1625 
Q 2075 1625 1800 1550 
L 1575 1775 
L 5225 1775 
L 5550 2100 
L 6025 1625 
L 3425 1625 
L 3900 1300 
Q 3675 1225 3275 825 
Q 2875 400 2350 -50 
L 4925 25 
Q 4700 375 4275 775 
L 4350 850 
z
M 1550 4675 
L 1550 3825 
L 5050 3825 
L 5050 4675 
L 1550 4675 
z
M 250 -575 
Q 725 150 925 925 
Q 1125 1700 1150 2462 
Q 1175 3225 1175 3862 
Q 1175 4500 1150 5025 
L 1550 4825 
L 5025 4825 
L 5275 5075 
L 5625 4725 
L 5425 4575 
Q 5425 4300 5425 4012 
Q 5425 3725 5450 3525 
L 5050 3375 
L 5050 3675 
L 1550 3675 
Q 1550 2925 1475 2150 
Q 1400 1375 1162 700 
Q 925 25 325 -650 
L 250 -575 
z
" transform="scale(0.015625)"/>
      <path id="SimSun-5168" d="M 3125 4725 
Q 2375 3475 1525 2800 
L 4225 2800 
L 4500 3050 
Q 3675 3725 3125 4725 
z
M 2900 5250 
L 3425 4950 
L 3225 4825 
Q 3550 4275 4275 3650 
Q 5000 3025 6100 2850 
L 6100 2750 
Q 5725 2675 5625 2400 
Q 5075 2600 4500 3050 
L 4925 2650 
L 3350 2650 
L 3350 1425 
L 4400 1425 
L 4700 1725 
L 5150 1275 
L 3350 1275 
L 3350 -150 
L 5075 -150 
L 5425 225 
L 5950 -300 
L 1325 -300 
Q 1000 -300 725 -375 
L 500 -150 
L 3000 -150 
L 3000 1275 
L 2075 1275 
Q 1750 1275 1475 1200 
L 1250 1425 
L 3000 1425 
L 3000 2650 
L 2200 2650 
Q 1875 2650 1625 2575 
L 1450 2750 
Q 900 2350 275 2100 
L 250 2175 
Q 1225 2750 1875 3550 
Q 2525 4350 2900 5250 
z
" transform="scale(0.015625)"/>
      <path id="SimSun-5f52" d="M 1275 3950 
Q 1275 1675 1300 1075 
L 900 875 
Q 925 1775 925 2800 
Q 925 3825 900 4450 
L 1450 4150 
L 1275 3950 
z
M 500 -575 
Q 1125 -125 1550 462 
Q 1975 1050 2050 2000 
Q 2125 2950 2125 3775 
Q 2125 4600 2100 5200 
L 2725 4925 
L 2500 4725 
Q 2500 2750 2375 1812 
Q 2250 875 1725 300 
Q 1200 -275 550 -650 
L 500 -575 
z
M 5650 4000 
L 5650 1075 
Q 5650 400 5675 -250 
L 5275 -400 
L 5275 275 
L 3250 275 
Q 2925 275 2650 200 
L 2425 425 
L 5275 425 
L 5275 2300 
L 3650 2300 
Q 3325 2300 3050 2225 
L 2825 2450 
L 5275 2450 
L 5275 4100 
L 3525 4100 
Q 3200 4100 2925 4025 
L 2700 4250 
L 5225 4250 
L 5450 4500 
L 5850 4150 
L 5650 4000 
z
" transform="scale(0.015625)"/>
      <path id="SimSun-7ea6" d="M 3400 2650 
Q 4275 2050 4275 1787 
Q 4275 1525 4187 1425 
Q 4100 1325 4050 1325 
Q 3950 1325 3875 1600 
Q 3775 1975 3325 2600 
L 3400 2650 
z
M 3850 175 
Q 4775 125 4962 150 
Q 5150 175 5212 587 
Q 5275 1000 5300 3575 
L 3550 3575 
Q 3075 2800 2575 2300 
L 2500 2350 
Q 3000 3075 3325 3875 
Q 3650 4675 3725 5125 
L 4275 4825 
L 4075 4700 
Q 3850 4225 3600 3725 
L 5250 3725 
L 5425 4000 
L 5825 3700 
L 5650 3525 
Q 5625 2050 5600 1075 
Q 5575 100 5337 -137 
Q 5100 -375 4750 -475 
Q 4725 -75 3850 75 
L 3850 175 
z
M 1475 5100 
L 2000 4825 
Q 1700 4500 1500 4050 
Q 1275 3600 800 2900 
L 1925 3000 
Q 2200 3450 2450 4075 
L 2925 3750 
Q 2675 3575 2250 2950 
Q 1800 2325 975 1400 
Q 1350 1450 2750 1775 
L 2775 1675 
Q 1950 1400 1525 1250 
Q 1100 1100 750 825 
L 425 1325 
Q 575 1350 850 1612 
Q 1125 1875 1825 2850 
Q 1475 2775 1200 2700 
Q 925 2625 675 2450 
L 400 2900 
Q 700 3000 1025 3737 
Q 1350 4475 1475 5100 
z
M 450 125 
Q 1525 350 2900 775 
L 2925 675 
Q 1800 250 1362 37 
Q 925 -175 775 -375 
L 450 125 
z
" transform="scale(0.015625)"/>
      <path id="SimSun-7684" d="M 1125 3775 
L 1125 2175 
L 2425 2175 
L 2425 3775 
L 1125 3775 
z
M 1125 2025 
L 1125 275 
L 2425 275 
L 2425 2025 
L 1125 2025 
z
M 2750 3625 
Q 2750 700 2775 -200 
L 2425 -400 
L 2425 125 
L 1125 125 
L 1125 -300 
L 775 -500 
Q 800 675 800 1837 
Q 800 3000 775 4150 
L 1150 3925 
L 1400 3925 
Q 1650 4775 1675 5225 
L 2225 4925 
Q 1975 4800 1550 3925 
L 2375 3925 
L 2625 4175 
L 3000 3800 
L 2750 3625 
z
M 3975 5200 
L 4525 4875 
Q 4325 4750 3900 3850 
L 5250 3850 
L 5525 4125 
L 5900 3750 
L 5675 3575 
Q 5625 650 5537 262 
Q 5450 -125 5287 -275 
Q 5125 -425 4775 -550 
Q 4650 -150 3950 50 
L 3950 175 
Q 4575 50 4850 50 
Q 5125 50 5187 475 
Q 5250 900 5300 3700 
L 3850 3700 
Q 3400 2975 2900 2475 
L 2825 2525 
Q 3350 3325 3600 3950 
Q 3850 4575 3975 5200 
z
M 3525 2750 
Q 4125 2300 4225 2087 
Q 4325 1875 4325 1775 
Q 4325 1600 4225 1475 
Q 4125 1350 4075 1350 
Q 3975 1350 3925 1700 
Q 3825 2200 3475 2675 
L 3525 2750 
z
" transform="scale(0.015625)"/>
      <path id="SimSun-654f" d="M 1825 4925 
L 1625 4825 
Q 1475 4575 1325 4325 
L 3050 4325 
L 3375 4650 
L 3850 4175 
L 1275 4175 
Q 825 3425 350 3000 
L 275 3050 
Q 1000 4025 1300 5225 
L 1825 4925 
z
M 2875 2175 
L 2950 3350 
L 1425 3350 
L 1275 2175 
L 2875 2175 
z
M 1675 1750 
L 1725 1800 
Q 2225 1475 2275 1300 
Q 2325 1125 2225 1012 
Q 2125 900 2075 900 
Q 2000 900 1975 1075 
Q 1925 1325 1675 1750 
z
M 2775 675 
L 2875 2025 
L 1250 2025 
L 1050 675 
L 2775 675 
z
M 925 2175 
L 1125 3750 
L 1475 3500 
L 2925 3500 
L 3100 3725 
L 3475 3425 
L 3275 3275 
L 3200 2175 
L 3350 2175 
L 3625 2450 
L 4050 2025 
L 3200 2025 
L 3100 650 
L 3225 650 
L 3500 925 
L 3925 500 
L 3075 500 
Q 3025 25 2900 -237 
Q 2775 -500 2325 -625 
Q 2325 -350 1675 -50 
L 1700 50 
Q 2175 -75 2425 -75 
Q 2550 -75 2625 -12 
Q 2700 50 2750 525 
L 1050 525 
L 875 325 
L 550 625 
L 725 775 
L 900 2025 
Q 700 2025 500 1950 
L 275 2175 
L 925 2175 
z
M 4025 3400 
Q 3750 2800 3475 2475 
L 3400 2500 
Q 3925 3475 4225 5200 
L 4775 4900 
L 4575 4775 
Q 4350 4125 4150 3625 
L 5350 3625 
L 5650 3925 
L 6100 3475 
L 5500 3475 
Q 5400 1975 4925 825 
Q 5525 25 6150 -125 
L 6150 -225 
Q 5775 -250 5700 -475 
Q 5175 -125 4725 550 
Q 3975 -250 3025 -650 
L 2975 -575 
Q 3900 -75 4550 825 
Q 4050 2125 4025 3400 
z
M 4150 3475 
Q 4250 2125 4725 1150 
Q 5075 2100 5150 3475 
L 4150 3475 
z
M 1775 3150 
L 1825 3200 
Q 2300 2925 2350 2812 
Q 2400 2700 2400 2650 
Q 2400 2525 2312 2412 
Q 2225 2300 2200 2300 
Q 2125 2300 2075 2525 
Q 2000 2825 1775 3150 
z
" transform="scale(0.015625)"/>
      <path id="SimSun-611f" d="M 1525 3600 
L 3075 3600 
L 3325 3850 
L 3725 3450 
L 2225 3450 
Q 1950 3450 1725 3400 
L 1525 3600 
z
M 3475 2675 
Q 3475 2050 3500 1775 
L 3150 1625 
L 3150 1875 
L 2175 1875 
L 2175 1650 
L 1825 1500 
Q 1850 1925 1850 2325 
Q 1850 2725 1825 3125 
L 2200 2925 
L 3125 2925 
L 3300 3125 
L 3650 2825 
L 3475 2675 
z
M 2175 2775 
L 2175 2025 
L 3150 2025 
L 3150 2775 
L 2175 2775 
z
M 4525 5225 
Q 4925 5000 5050 4900 
Q 5175 4800 5175 4700 
Q 5175 4650 5137 4562 
Q 5100 4475 5000 4425 
Q 4900 4375 4825 4625 
Q 4725 4850 4475 5150 
L 4525 5225 
z
M 5625 1550 
L 5775 2450 
L 5875 2450 
Q 5850 2200 5875 1800 
Q 5900 1400 6050 1225 
Q 6100 1150 6100 1125 
Q 6100 1050 5837 1087 
Q 5575 1125 5150 1375 
Q 4725 1625 4375 2075 
Q 3875 1625 3225 1250 
L 3150 1300 
Q 3800 1825 4200 2300 
Q 4050 2575 3925 3087 
Q 3800 3600 3775 4200 
L 1400 4200 
Q 1400 3050 1237 2375 
Q 1075 1700 350 1000 
L 275 1050 
Q 825 1800 925 2412 
Q 1025 3025 1037 3450 
Q 1050 3875 1025 4600 
L 1400 4350 
L 3750 4350 
Q 3725 4900 3700 5275 
L 4225 5050 
L 4050 4900 
Q 4050 4725 4075 4350 
L 5275 4350 
L 5600 4675 
L 6075 4200 
L 4100 4200 
Q 4150 3275 4450 2600 
Q 4775 3075 4912 3325 
Q 5050 3575 5175 3875 
L 5675 3525 
L 5450 3450 
Q 5000 2750 4600 2325 
Q 5025 1775 5625 1550 
z
M 1150 1025 
L 1250 1025 
Q 1225 250 1100 50 
Q 975 -150 800 -187 
Q 625 -225 562 -137 
Q 500 -50 500 0 
Q 500 100 700 225 
Q 950 400 1150 1025 
z
M 2750 1275 
L 2800 1350 
Q 3350 1125 3512 987 
Q 3675 850 3675 750 
Q 3675 675 3600 537 
Q 3525 400 3475 400 
Q 3400 400 3325 575 
Q 3175 850 2750 1275 
z
M 4750 1100 
L 4825 1175 
Q 5550 725 5612 600 
Q 5675 475 5675 375 
Q 5675 225 5587 125 
Q 5500 25 5450 25 
Q 5350 25 5275 275 
Q 5150 650 4750 1100 
z
M 1850 -25 
Q 1850 775 1825 1175 
L 2400 900 
L 2175 725 
L 2175 150 
Q 2125 -225 2575 -175 
L 3925 -175 
Q 4200 -200 4262 37 
Q 4325 275 4350 700 
L 4450 700 
Q 4475 325 4525 150 
Q 4575 -25 4750 -100 
Q 4525 -500 3925 -450 
L 2425 -450 
Q 1850 -500 1850 -25 
z
" transform="scale(0.015625)"/>
      <path id="SimSun-6027" d="M 3975 3450 
Q 3975 4800 3950 5200 
L 4575 4925 
L 4325 4750 
L 4325 3450 
L 5050 3450 
L 5400 3800 
L 5900 3300 
L 4325 3300 
L 4325 1925 
L 4975 1925 
L 5300 2250 
L 5775 1775 
L 4325 1775 
L 4325 25 
L 5300 25 
L 5650 375 
L 6150 -125 
L 2875 -125 
Q 2550 -125 2275 -200 
L 2050 25 
L 3975 25 
L 3975 1775 
L 3450 1775 
Q 3125 1775 2850 1700 
L 2625 1925 
L 3975 1925 
L 3975 3300 
L 2950 3300 
Q 2625 2500 2225 2000 
L 2150 2050 
Q 2450 2650 2650 3387 
Q 2850 4125 2900 4600 
L 3475 4325 
L 3250 4175 
L 3000 3450 
L 3975 3450 
z
M 875 3625 
Q 950 2875 900 2687 
Q 850 2500 737 2437 
Q 625 2375 550 2375 
Q 500 2375 412 2412 
Q 325 2450 325 2475 
Q 325 2575 500 2775 
Q 725 3050 775 3625 
L 875 3625 
z
M 1575 3950 
Q 1975 3800 2150 3675 
Q 2325 3550 2300 3350 
Q 2275 3150 2175 3075 
Q 2075 3000 1975 3275 
Q 1850 3550 1575 3825 
L 1575 500 
Q 1575 75 1600 -425 
L 1200 -600 
Q 1225 125 1225 700 
L 1225 4225 
Q 1225 4650 1200 5250 
L 1800 4975 
L 1575 4800 
L 1575 3950 
z
" transform="scale(0.015625)"/>
     </defs>
     <use xlink:href="#SimSun-7ba1"/>
     <use xlink:href="#SimSun-7ebf" transform="translate(100 0)"/>
     <use xlink:href="#SimSun-5f0f" transform="translate(200 0)"/>
     <use xlink:href="#SimSun-5206" transform="translate(300 0)"/>
     <use xlink:href="#SimSun-5c42" transform="translate(400 0)"/>
     <use xlink:href="#SimSun-5168" transform="translate(500 0)"/>
     <use xlink:href="#SimSun-5f52" transform="translate(600 0)"/>
     <use xlink:href="#SimSun-7ea6" transform="translate(700 0)"/>
     <use xlink:href="#SimSun-7684" transform="translate(800 0)"/>
     <use xlink:href="#SimSun-5206" transform="translate(900 0)"/>
     <use xlink:href="#SimSun-5757" transform="translate(1000 0)"/>
     <use xlink:href="#SimSun-654f" transform="translate(1100 0)"/>
     <use xlink:href="#SimSun-611f" transform="translate(1200 0)"/>
     <use xlink:href="#SimSun-6027" transform="translate(1300 0)"/>
    </g>
   </g>
  </g>
  <g id="axes_2">
   <g id="matplotlib.axis_3">
    <g id="ytick_8">
     <g id="line2d_30">
      <defs>
       <path id="m27aeec543f" d="M 0 0 
L 3.5 0 
" style="stroke: #000000; stroke-width: 0.8"/>
      </defs>
      <g>
       <use xlink:href="#m27aeec543f" x="610.2475" y="230.805393" style="stroke: #000000; stroke-width: 0.8"/>
      </g>
     </g>
     <g id="text_18">
      <!-- 0.6 -->
      <g style="fill: #e8684a" transform="translate(617.2475 234.624455) scale(0.11 -0.11)">
       <defs>
        <path id="TimesNewRomanPSMT-2e" d="M 800 606 
Q 947 606 1047 504 
Q 1147 403 1147 259 
Q 1147 116 1045 14 
Q 944 -88 800 -88 
Q 656 -88 554 14 
Q 453 116 453 259 
Q 453 406 554 506 
Q 656 606 800 606 
z
" transform="scale(0.015625)"/>
       </defs>
       <use xlink:href="#TimesNewRomanPSMT-30"/>
       <use xlink:href="#TimesNewRomanPSMT-2e" transform="translate(50 0)"/>
       <use xlink:href="#TimesNewRomanPSMT-36" transform="translate(75 0)"/>
      </g>
     </g>
    </g>
    <g id="ytick_9">
     <g id="line2d_31">
      <g>
       <use xlink:href="#m27aeec543f" x="610.2475" y="195.510736" style="stroke: #000000; stroke-width: 0.8"/>
      </g>
     </g>
     <g id="text_19">
      <!-- 0.8 -->
      <g style="fill: #e8684a" transform="translate(617.2475 199.329798) scale(0.11 -0.11)">
       <use xlink:href="#TimesNewRomanPSMT-30"/>
       <use xlink:href="#TimesNewRomanPSMT-2e" transform="translate(50 0)"/>
       <use xlink:href="#TimesNewRomanPSMT-38" transform="translate(75 0)"/>
      </g>
     </g>
    </g>
    <g id="ytick_10">
     <g id="line2d_32">
      <g>
       <use xlink:href="#m27aeec543f" x="610.2475" y="160.216079" style="stroke: #000000; stroke-width: 0.8"/>
      </g>
     </g>
     <g id="text_20">
      <!-- 1.0 -->
      <g style="fill: #e8684a" transform="translate(617.2475 164.035141) scale(0.11 -0.11)">
       <use xlink:href="#TimesNewRomanPSMT-31"/>
       <use xlink:href="#TimesNewRomanPSMT-2e" transform="translate(50 0)"/>
       <use xlink:href="#TimesNewRomanPSMT-30" transform="translate(75 0)"/>
      </g>
     </g>
    </g>
    <g id="ytick_11">
     <g id="line2d_33">
      <g>
       <use xlink:href="#m27aeec543f" x="610.2475" y="124.921421" style="stroke: #000000; stroke-width: 0.8"/>
      </g>
     </g>
     <g id="text_21">
      <!-- 1.2 -->
      <g style="fill: #e8684a" transform="translate(617.2475 128.740484) scale(0.11 -0.11)">
       <use xlink:href="#TimesNewRomanPSMT-31"/>
       <use xlink:href="#TimesNewRomanPSMT-2e" transform="translate(50 0)"/>
       <use xlink:href="#TimesNewRomanPSMT-32" transform="translate(75 0)"/>
      </g>
     </g>
    </g>
    <g id="ytick_12">
     <g id="line2d_34">
      <g>
       <use xlink:href="#m27aeec543f" x="610.2475" y="89.626764" style="stroke: #000000; stroke-width: 0.8"/>
      </g>
     </g>
     <g id="text_22">
      <!-- 1.4 -->
      <g style="fill: #e8684a" transform="translate(617.2475 93.445827) scale(0.11 -0.11)">
       <use xlink:href="#TimesNewRomanPSMT-31"/>
       <use xlink:href="#TimesNewRomanPSMT-2e" transform="translate(50 0)"/>
       <use xlink:href="#TimesNewRomanPSMT-34" transform="translate(75 0)"/>
      </g>
     </g>
    </g>
    <g id="ytick_13">
     <g id="line2d_35">
      <g>
       <use xlink:href="#m27aeec543f" x="610.2475" y="54.332107" style="stroke: #000000; stroke-width: 0.8"/>
      </g>
     </g>
     <g id="text_23">
      <!-- 1.6 -->
      <g style="fill: #e8684a" transform="translate(617.2475 58.15117) scale(0.11 -0.11)">
       <use xlink:href="#TimesNewRomanPSMT-31"/>
       <use xlink:href="#TimesNewRomanPSMT-2e" transform="translate(50 0)"/>
       <use xlink:href="#TimesNewRomanPSMT-36" transform="translate(75 0)"/>
      </g>
     </g>
    </g>
    <g id="text_24">
     <!-- 加速比（x） -->
     <g style="fill: #e8684a" transform="translate(646.1075 186.56875) rotate(-90) scale(0.16 -0.16)">
      <defs>
       <path id="SimSun-52a0" d="M 1500 3800 
Q 1500 4700 1475 5250 
L 2075 4975 
L 1850 4800 
L 1850 3800 
L 2750 3800 
L 2950 4050 
L 3325 3725 
L 3100 3550 
Q 3025 650 2825 200 
Q 2625 -250 2150 -350 
Q 2175 -25 1450 250 
L 1475 375 
Q 2050 225 2225 225 
Q 2325 225 2437 287 
Q 2550 350 2637 862 
Q 2725 1375 2775 3650 
L 1850 3650 
Q 1825 2825 1762 2212 
Q 1700 1600 1400 900 
Q 1100 200 325 -525 
L 250 -450 
Q 825 225 1087 875 
Q 1350 1525 1425 2200 
Q 1500 2875 1500 3650 
L 825 3650 
L 525 3600 
L 325 3800 
L 1500 3800 
z
M 5725 3700 
L 5725 975 
Q 5725 375 5750 -175 
L 5400 -325 
L 5400 350 
L 4075 350 
L 4075 -300 
L 3725 -475 
Q 3750 300 3750 1850 
Q 3750 3400 3725 4175 
L 4100 3925 
L 5350 3925 
L 5575 4150 
L 5900 3825 
L 5725 3700 
z
M 4075 3775 
L 4075 500 
L 5400 500 
L 5400 3775 
L 4075 3775 
z
" transform="scale(0.015625)"/>
       <path id="SimSun-901f" d="M 2800 3275 
L 2800 2400 
L 3700 2400 
L 3700 3275 
L 2800 3275 
z
M 4025 3275 
L 4025 2400 
L 4950 2400 
L 4950 3275 
L 4025 3275 
z
M 4025 1675 
Q 4025 800 4050 175 
L 3650 25 
Q 3700 775 3700 1875 
Q 2950 950 2000 450 
L 1950 525 
Q 3075 1375 3550 2250 
L 2800 2250 
L 2800 2025 
L 2475 1900 
L 2475 3600 
L 2800 3425 
L 3700 3425 
L 3700 4125 
L 2700 4125 
Q 2375 4125 2100 4050 
L 1875 4275 
L 3700 4275 
Q 3700 4650 3675 5175 
L 4250 4950 
L 4025 4775 
L 4025 4275 
L 5150 4275 
L 5475 4550 
L 5900 4125 
L 4025 4125 
L 4025 3425 
L 4900 3425 
L 5075 3675 
L 5500 3400 
L 5275 3225 
Q 5275 2575 5300 2100 
L 4950 1975 
L 4950 2250 
L 4025 2250 
L 4025 1800 
Q 4850 1550 5225 1350 
Q 5600 1150 5612 925 
Q 5625 700 5537 600 
Q 5450 500 5150 875 
Q 4850 1250 4025 1675 
z
M 675 4775 
L 750 4825 
Q 1125 4625 1350 4437 
Q 1575 4250 1562 4100 
Q 1550 3950 1450 3837 
Q 1350 3725 1300 3725 
Q 1200 3725 1125 4000 
Q 1000 4375 675 4775 
z
M 1600 675 
Q 1875 400 2287 150 
Q 2700 -100 3762 -112 
Q 4825 -125 6150 25 
L 6150 -75 
Q 5675 -225 5650 -475 
Q 4500 -500 3762 -475 
Q 3025 -450 2550 -250 
Q 2075 -50 1825 250 
Q 1550 525 1425 525 
Q 1300 525 1025 237 
Q 750 -50 625 -275 
L 275 50 
Q 675 400 1275 700 
L 1275 2675 
L 1050 2675 
Q 725 2675 450 2600 
L 225 2825 
L 1225 2825 
L 1400 3075 
L 1825 2775 
L 1600 2600 
L 1600 675 
z
" transform="scale(0.015625)"/>
       <path id="SimSun-6bd4" d="M 1050 3400 
Q 1050 4525 1025 5075 
L 1625 4800 
L 1400 4600 
L 1400 2925 
L 2400 2925 
L 2700 3225 
L 3150 2775 
L 1400 2775 
L 1400 350 
L 3050 925 
L 3100 825 
Q 1625 150 1250 -250 
L 950 175 
Q 1050 275 1050 525 
L 1050 3400 
z
M 3425 3825 
Q 3425 4575 3400 5125 
L 4025 4825 
L 3775 4625 
L 3775 2525 
Q 4300 2925 4712 3400 
Q 5125 3875 5275 4175 
L 5775 3700 
Q 5475 3650 5025 3250 
Q 4550 2850 3775 2375 
L 3775 425 
Q 3775 125 4100 125 
L 5125 125 
Q 5325 125 5400 350 
Q 5475 575 5500 1425 
L 5625 1425 
Q 5625 825 5712 550 
Q 5800 275 6000 175 
Q 5875 -25 5712 -112 
Q 5550 -200 5275 -200 
L 3975 -200 
Q 3425 -200 3425 275 
L 3425 3825 
z
" transform="scale(0.015625)"/>
       <path id="TimesNewRomanPSMT-78" d="M 84 2863 
L 1431 2863 
L 1431 2747 
Q 1303 2747 1251 2703 
Q 1200 2659 1200 2588 
Q 1200 2513 1309 2356 
Q 1344 2306 1413 2200 
L 1616 1875 
L 1850 2200 
Q 2075 2509 2075 2591 
Q 2075 2656 2022 2701 
Q 1969 2747 1850 2747 
L 1850 2863 
L 2819 2863 
L 2819 2747 
Q 2666 2738 2553 2663 
Q 2400 2556 2134 2200 
L 1744 1678 
L 2456 653 
Q 2719 275 2831 198 
Q 2944 122 3122 113 
L 3122 0 
L 1772 0 
L 1772 113 
Q 1913 113 1991 175 
Q 2050 219 2050 291 
Q 2050 363 1850 653 
L 1431 1266 
L 972 653 
Q 759 369 759 316 
Q 759 241 829 180 
Q 900 119 1041 113 
L 1041 0 
L 106 0 
L 106 113 
Q 219 128 303 191 
Q 422 281 703 653 
L 1303 1450 
L 759 2238 
Q 528 2575 401 2661 
Q 275 2747 84 2747 
L 84 2863 
z
" transform="scale(0.015625)"/>
      </defs>
      <use xlink:href="#SimSun-52a0"/>
      <use xlink:href="#SimSun-901f" transform="translate(100 0)"/>
      <use xlink:href="#SimSun-6bd4" transform="translate(200 0)"/>
      <use xlink:href="#SimSun-ff08" transform="translate(300 0)"/>
      <use xlink:href="#TimesNewRomanPSMT-78" transform="translate(400 0)"/>
      <use xlink:href="#SimSun-ff09" transform="translate(450 0)"/>
     </g>
    </g>
   </g>
   <g id="line2d_36">
    <path d="M 80.656136 160.216079 
L 96.926224 103.744627 
L 129.4664 41.978977 
L 194.546752 57.861573 
L 259.627104 94.920963 
L 324.707456 139.039284 
L 454.86816 211.393331 
L 585.028864 243.158523 
" clip-path="url(#p1528bfc5d0)" style="fill: none; stroke: #e8684a; stroke-width: 2.2; stroke-linecap: square"/>
    <defs>
     <path id="m7313e66556" d="M -3 3 
L 3 3 
L 3 -3 
L -3 -3 
z
" style="stroke: #e8684a; stroke-linejoin: miter"/>
    </defs>
    <g clip-path="url(#p1528bfc5d0)">
     <use xlink:href="#m7313e66556" x="80.656136" y="160.216079" style="fill: #e8684a; stroke: #e8684a; stroke-linejoin: miter"/>
     <use xlink:href="#m7313e66556" x="96.926224" y="103.744627" style="fill: #e8684a; stroke: #e8684a; stroke-linejoin: miter"/>
     <use xlink:href="#m7313e66556" x="129.4664" y="41.978977" style="fill: #e8684a; stroke: #e8684a; stroke-linejoin: miter"/>
     <use xlink:href="#m7313e66556" x="194.546752" y="57.861573" style="fill: #e8684a; stroke: #e8684a; stroke-linejoin: miter"/>
     <use xlink:href="#m7313e66556" x="259.627104" y="94.920963" style="fill: #e8684a; stroke: #e8684a; stroke-linejoin: miter"/>
     <use xlink:href="#m7313e66556" x="324.707456" y="139.039284" style="fill: #e8684a; stroke: #e8684a; stroke-linejoin: miter"/>
     <use xlink:href="#m7313e66556" x="454.86816" y="211.393331" style="fill: #e8684a; stroke: #e8684a; stroke-linejoin: miter"/>
     <use xlink:href="#m7313e66556" x="585.028864" y="243.158523" style="fill: #e8684a; stroke: #e8684a; stroke-linejoin: miter"/>
    </g>
   </g>
   <g id="patch_7">
    <path d="M 55.4375 253.2175 
L 55.4375 31.92 
" style="fill: none; stroke: #000000; stroke-width: 0.8; stroke-linejoin: miter; stroke-linecap: square"/>
   </g>
   <g id="patch_8">
    <path d="M 610.2475 253.2175 
L 610.2475 31.92 
" style="fill: none; stroke: #000000; stroke-width: 0.8; stroke-linejoin: miter; stroke-linecap: square"/>
   </g>
   <g id="patch_9">
    <path d="M 55.4375 253.2175 
L 610.2475 253.2175 
" style="fill: none; stroke: #000000; stroke-width: 0.8; stroke-linejoin: miter; stroke-linecap: square"/>
   </g>
   <g id="patch_10">
    <path d="M 55.4375 31.92 
L 610.2475 31.92 
" style="fill: none; stroke: #000000; stroke-width: 0.8; stroke-linejoin: miter; stroke-linecap: square"/>
   </g>
  </g>
 </g>
 <defs>
  <clipPath id="p1528bfc5d0">
   <rect x="55.4375" y="31.92" width="554.81" height="221.2975"/>
  </clipPath>
 </defs>
</svg>
